<?xml version="1.0" encoding="utf-8"?>
<!-- Generator: Adobe Illustrator 17.0.0, SVG Export Plug-In . SVG Version: 6.00 Build 0)  -->
<!DOCTYPE svg PUBLIC "-//W3C//DTD SVG 1.1//EN" "http://www.w3.org/Graphics/SVG/1.1/DTD/svg11.dtd">
<svg version="1.1" id="Layer_1" xmlns="http://www.w3.org/2000/svg" xmlns:xlink="http://www.w3.org/1999/xlink" x="0px" y="0px"
	 width="1127.573px" height="815.528px" viewBox="-133.396 -64.132 1127.573 815.528"
	 enable-background="new -133.396 -64.132 1127.573 815.528" xml:space="preserve">
<g id="svg2700" xmlns:sodipodi="http://sodipodi.sourceforge.net/DTD/sodipodi-0.dtd" xmlns:cc="http://creativecommons.org/ns#" xmlns:rdf="http://www.w3.org/1999/02/22-rdf-syntax-ns#" xmlns:svg="http://www.w3.org/2000/svg" xmlns:inkscape="http://www.inkscape.org/namespaces/inkscape" xmlns:dc="http://purl.org/dc/elements/1.1/" inkscape:output_extension="org.inkscape.output.svg.inkscape" sodipodi:version="0.32" sodipodi:docname="Blank vowel trapezoid.svg" inkscape:version="0.46" sodipodi:docbase="C:\Backups from C\Eigene Bilder\Phonology">
	
		<sodipodi:namedview  bordercolor="#666666" id="base" showgrid="true" inkscape:zoom="1.1921919" pagecolor="#ffffff" inkscape:cx="499.88064" inkscape:cy="349.61479" borderopacity="1.0" inkscape:current-layer="layer1" inkscape:pageshadow="2" inkscape:document-units="px" inkscape:pageopacity="0.0" inkscape:window-x="0" inkscape:window-height="1109" inkscape:window-y="33" inkscape:window-width="1600">
		<inkscape:grid  type="xygrid" visible="true" id="grid2384" enabled="true"></inkscape:grid>
	</sodipodi:namedview>
	<defs>
		
		
			<inkscape:perspective  inkscape:persp3d-origin="490 : 240 : 1" id="perspective61" inkscape:vp_x="0 : 360 : 1" sodipodi:type="inkscape:persp3d" inkscape:vp_z="980 : 360 : 1" inkscape:vp_y="0 : 1000 : 0">
			</inkscape:perspective>
		
			<inkscape:perspective  inkscape:persp3d-origin="372.04724 : 350.78739 : 1" id="perspective2425" inkscape:vp_x="0 : 526.18109 : 1" sodipodi:type="inkscape:persp3d" inkscape:vp_z="744.09448 : 526.18109 : 1" inkscape:vp_y="0 : 1000 : 0">
			</inkscape:perspective>
	</defs>
	<g id="trapezium" transform="matrix(0.9130369,0,0,0.9130369,95.643035,784.10031)">
		<path id="path1" sodipodi:nodetypes="ccccc" fill="none" stroke="#000000" stroke-width="4.381" d="M4.13-803.09l876.006-0.929
			l1.213,657.989l-439.681-1.217L4.13-803.09z"/>
		<path id="path2" fill="none" stroke="#000000" stroke-width="4.381" d="M442.597-803.09l217.376,655.844"/>
		<path id="path3" fill="none" stroke="#000000" stroke-width="4.381" d="M150.905-583.857l729.231-0.929"/>
		<path id="path4" fill="none" stroke="#000000" stroke-width="4.381" d="M298.609-364.623l579.669-1.858h0.929v-0.929"/>
	</g>
</g>
<g id="blank">
	<rect x="75.243" y="30.778" fill="#FFFFFF" width="102.94" height="74.455"/>
	<rect x="463.392" y="21.778" fill="#FFFFFF" width="102.94" height="74.455"/>
	<rect x="840.705" y="27.618" fill="#FFFFFF" width="102.94" height="74.455"/>
	<rect x="522.444" y="212.942" fill="#FFFFFF" width="102.94" height="74.455"/>
	<rect x="178.183" y="212.942" fill="#FFFFFF" width="102.94" height="74.455"/>
	<rect x="848.004" y="211.567" fill="#FFFFFF" width="102.94" height="74.455"/>
	<rect x="845.085" y="411.575" fill="#FFFFFF" width="102.94" height="74.455"/>
	<rect x="582.301" y="413.034" fill="#FFFFFF" width="102.94" height="74.455"/>
	<rect x="318.057" y="414.494" fill="#FFFFFF" width="102.94" height="74.455"/>
	<rect x="448.281" y="613.542" fill="#FFFFFF" width="102.94" height="74.455"/>
	<rect x="848.877" y="613.542" fill="#FFFFFF" width="102.94" height="74.455"/>
	<rect x="548.301" y="315.157" fill="#FFFFFF" width="102.94" height="74.455"/>
</g>
<g id="ipa">
	<text transform="matrix(1 0 0 1 87.2427 66.2136)" font-family="'CharisSIL'" font-size="48">i</text>
	<text transform="matrix(1 0 0 1 136.8059 65.2793)" font-family="'CharisSIL'" font-size="48">y</text>
	<text transform="matrix(1 0 0 1 183.8619 267.7158)" font-family="'CharisSIL'" font-size="48">e</text>
	<text transform="matrix(1 0 0 1 233.4252 266.7815)" font-family="'CharisSIL'" font-size="48">ø</text>
	<text transform="matrix(1 0 0 1 538.5508 265.218)" font-family="'CharisSIL'" font-size="48">ɘ</text>
	<text transform="matrix(1 0 0 1 584.114 265.2838)" font-family="'CharisSIL'" font-size="48">ɵ</text>
	<text transform="matrix(1 0 0 1 867.3932 265.7508)" font-family="'CharisSIL'" font-size="48">ɤ</text>
	<text transform="matrix(1 0 0 1 912.9565 264.8166)" font-family="'CharisSIL'" font-size="48">o</text>
	<text transform="matrix(1 0 0 1 475.2183 66.3126)" font-family="'CharisSIL'" font-size="48">ɨ</text>
	<text transform="matrix(1 0 0 1 523.7815 66.3784)" font-family="'CharisSIL'" font-size="48">ʉ</text>
	<text transform="matrix(1 0 0 1 860.2123 65.8454)" font-family="'CharisSIL'" font-size="48">ɯ</text>
	<text transform="matrix(1 0 0 1 909.7755 65.9112)" font-family="'CharisSIL'" font-size="48">u</text>
	<text transform="matrix(1 0 0 1 334.1042 464.188)" font-family="'CharisSIL'" font-size="48">ɛ</text>
	<text transform="matrix(1 0 0 1 370.6674 463.2537)" font-family="'CharisSIL'" font-size="48">œ</text>
	<text transform="matrix(1 0 0 1 598.4332 463.2535)" font-family="'CharisSIL'" font-size="48">ɜ</text>
	<text transform="matrix(1 0 0 1 643.9964 462.3192)" font-family="'CharisSIL'" font-size="48">ɞ</text>
	<text transform="matrix(1 0 0 1 867.3932 463.7205)" font-family="'CharisSIL'" font-size="48">ʌ</text>
	<text transform="matrix(1 0 0 1 916.9565 462.7863)" font-family="'CharisSIL'" font-size="48">ɔ</text>
	<text transform="matrix(1 0 0 1 454.4365 661.6558)" font-family="'CharisSIL'" font-size="48">a</text>
	<text transform="matrix(1 0 0 1 494.9998 661.7215)" font-family="'CharisSIL'" font-size="48">ɶ</text>
	<text transform="matrix(1 0 0 1 871.7729 662.5898)" font-family="'CharisSIL'" font-size="48">ɑ</text>
	<text transform="matrix(1 0 0 1 921.3362 661.6556)" font-family="'CharisSIL'" font-size="48">ɒ</text>
	<text transform="matrix(1 0 0 1 588.1138 364.7392)" font-family="'CharisSIL'" font-size="48">ə</text>
	<text transform="matrix(1 0 0 1 368.2842 576.9587)" font-family="'CharisSIL'" font-size="48">æ</text>
	<text transform="matrix(1 0 0 1 698.2232 576.9589)" font-family="'CharisSIL'" font-size="48">ɐ</text>
	<text transform="matrix(1 0 0 1 712.6152 169.4698)" font-family="'CharisSIL'" font-size="48">ʊ</text>
	<text transform="matrix(1 0 0 1 318.0567 169.9369)" font-family="'CharisSIL'" font-size="48">ɪ</text>
	<text transform="matrix(1 0 0 1 367.62 169.0026)" font-family="'CharisSIL'" font-size="48">ʏ</text>
</g>
<g id="labels">
	<text transform="matrix(1 0 0 1 867.3937 0.5077)" font-family="'CharisSIL'" font-size="30">Back</text>
	<text transform="matrix(1 0 0 1 635.5781 0.0163)" font-family="'CharisSIL'" font-size="30">Near-back</text>
	<text transform="matrix(1 0 0 1 441.6051 -0.8372)" font-family="'CharisSIL'" font-size="30">Central</text>
	<text transform="matrix(1 0 0 1 232.425 0.0163)" font-family="'CharisSIL'" font-size="30">Near-front</text>
	<text transform="matrix(1 0 0 1 50.2443 -0.837)" font-family="'CharisSIL'" font-size="30">Front</text>
	<text transform="matrix(1 0 0 1 -18.1307 61.0058)" font-family="'CharisSIL'" font-size="30">Close</text>
	<text transform="matrix(1 0 0 1 -86.2312 164.2034)" font-family="'CharisSIL'" font-size="30">Near-close</text>
	<text transform="matrix(1 0 0 1 -79.2441 260.3502)" font-family="'CharisSIL'" font-size="30">Close-mid</text>
	<text transform="matrix(1 0 0 1 0.253 364.7393)" font-family="'CharisSIL'" font-size="30">Mid</text>
	<text transform="matrix(1 0 0 1 -78.9803 464.3719)" font-family="'CharisSIL'" font-size="30">Open-mid</text>
	<text transform="matrix(1 0 0 1 -85.1913 576.959)" font-family="'CharisSIL'" font-size="30">Near-open</text>
	<text transform="matrix(1 0 0 1 -17.8672 650.7695)" font-family="'CharisSIL'" font-size="30">Open</text>
</g>
</svg>
