<?xml version="1.0" encoding="UTF-8" standalone="no"?>
<!-- Created with Inkscape (http://www.inkscape.org/) -->

<svg
   xmlns:dc="http://purl.org/dc/elements/1.1/"
   xmlns:cc="http://creativecommons.org/ns#"
   xmlns:rdf="http://www.w3.org/1999/02/22-rdf-syntax-ns#"
   xmlns:svg="http://www.w3.org/2000/svg"
   xmlns="http://www.w3.org/2000/svg"
   xmlns:sodipodi="http://sodipodi.sourceforge.net/DTD/sodipodi-0.dtd"
   xmlns:inkscape="http://www.inkscape.org/namespaces/inkscape"
   width="1000"
   height="750"
   id="svg2700"
   sodipodi:version="0.32"
   inkscape:version="0.48.2 r9819"
   version="1.0"
   sodipodi:docname="IPA_vowels.svg"
   inkscape:output_extension="org.inkscape.output.svg.inkscape">
  <defs
     id="defs2702">
    <marker
       inkscape:stockid="Arrow1Mend"
       orient="auto"
       refY="0"
       refX="0"
       id="Arrow1Mend"
       style="overflow:visible">
      <path
         id="path3248"
         d="M 0,0 5,-5 -12.5,0 5,5 0,0 z"
         style="fill-rule:evenodd;stroke:#000000;stroke-width:1pt;marker-start:none"
         transform="matrix(-0.4,0,0,-0.4,-4,0)"
         inkscape:connector-curvature="0" />
    </marker>
  </defs>
  <sodipodi:namedview
     id="base"
     pagecolor="#ffffff"
     bordercolor="#666666"
     borderopacity="1.0"
     inkscape:pageopacity="0.0"
     inkscape:pageshadow="2"
     inkscape:zoom="1.4367585"
     inkscape:cx="736.17329"
     inkscape:cy="221.7104"
     inkscape:document-units="px"
     inkscape:current-layer="layer2"
     inkscape:window-width="1280"
     inkscape:window-height="998"
     inkscape:window-x="-4"
     inkscape:window-y="-4"
     showgrid="true"
     fit-margin-top="0"
     fit-margin-left="0"
     fit-margin-right="0"
     fit-margin-bottom="0"
     inkscape:window-maximized="1">
    <inkscape:grid
       type="xygrid"
       id="grid2384"
       visible="true"
       enabled="true"
       empspacing="5"
       snapvisiblegridlinesonly="true" />
  </sodipodi:namedview>
  <metadata
     id="metadata1">
    <rdf:RDF>
      <cc:Work
         rdf:about="">
        <dc:format>image/svg+xml</dc:format>
        <dc:type
           rdf:resource="http://purl.org/dc/dcmitype/StillImage" />
        <dc:title></dc:title>
      </cc:Work>
    </rdf:RDF>
  </metadata>
  <g
     inkscape:label="background"
     inkscape:groupmode="layer"
     id="layer1"
     transform="translate(17.8125,43.562502)"
     style="display:inline">
    <g
       id="trapezium"
       transform="translate(30.524821,3.015357)">
      <path
         sodipodi:nodetypes="ccccc"
         id="path1"
         d="M 5.300362,2.93975 881.30673,2.010793 882.51985,660 442.83907,658.78333 5.300362,2.93975 z"
         style="fill:none;stroke:#b6b6b6;stroke-width:4;stroke-linecap:butt;stroke-linejoin:miter;stroke-miterlimit:4;stroke-opacity:1;stroke-dasharray:none"
         inkscape:connector-curvature="0" />
      <path
         id="path2"
         d="M 443.76802,2.93975 661.14394,658.78333"
         style="fill:none;stroke:#b6b6b6;stroke-width:4;stroke-linecap:butt;stroke-linejoin:miter;stroke-miterlimit:4;stroke-opacity:1;stroke-dasharray:none"
         inkscape:connector-curvature="0" />
      <path
         id="path3"
         d="m 152.07555,222.17358 729.23118,-0.92896"
         style="fill:none;stroke:#b6b6b6;stroke-width:4;stroke-linecap:butt;stroke-linejoin:miter;stroke-miterlimit:4;stroke-opacity:1;stroke-dasharray:none"
         inkscape:connector-curvature="0" />
      <path
         id="path4"
         d="m 299.7797,441.40741 579.66911,-1.85791 0.92896,0 0,-0.92896"
         style="fill:none;stroke:#b6b6b6;stroke-width:4;stroke-linecap:butt;stroke-linejoin:miter;stroke-miterlimit:4;stroke-opacity:1;stroke-dasharray:none"
         inkscape:connector-curvature="0" />
    </g>
  </g>
  <g
     inkscape:groupmode="layer"
     id="layer2"
     inkscape:label="vowels"
     transform="translate(17.8125,43.562502)"
     style="display:inline">
    <g
       style="font-size:64px;font-style:normal;font-variant:normal;font-weight:normal;font-stretch:normal;line-height:125%;letter-spacing:0px;word-spacing:0px;fill:#000000;fill-opacity:1;stroke:none;font-family:Gentium;-inkscape-font-specification:Gentium"
       id="text3046">
      <path
         d="m 6.875,-15.468752 c -1.22e-5,0.583372 -0.093762,1.135455 -0.28125,1.65625 -0.1875117,0.520871 -0.4427198,0.973995 -0.765625,1.359375 -0.3229275,0.385453 -0.7031354,0.692744 -1.140625,0.921875 -0.4375096,0.229202 -0.9166757,0.343785 -1.4375,0.34375 -0.9375076,3.5e-5 -1.609382,-0.260381 -2.015625,-0.78125 -0.40625614,-0.520797 -0.60938094,-1.260379 -0.609375,-2.21875 -5.94e-6,-0.583295 0.093744,-1.135377 0.28125,-1.65625 0.1874936,-0.520793 0.44791,-0.973917 0.78125,-1.359375 0.333326,-0.385375 0.713534,-0.687458 1.140625,-0.90625 0.4270748,-0.218708 0.890616,-0.328083 1.390625,-0.328125 1.770822,4.2e-5 2.6562378,0.989625 2.65625,2.96875 z m -10,39.40625 0,-1.34375 c 1.4166631,-0.291665 2.49999531,-0.609373 3.25,-0.953125 0.74999381,-0.343747 1.1249934,-0.661455 1.125,-0.953125 l 0,-17.6874999 C 1.2499934,1.9375201 1.2291601,1.078146 1.1875,0.42187309 1.1458269,-0.23435274 0.98957703,-0.74476889 0.71875,-1.1093769 0.44791091,-1.4739348 0.01561967,-1.7395596 -0.578125,-1.9062519 -1.1718791,-2.0728926 -2.0208366,-2.2083091 -3.125,-2.3125019 l 0,-1.25 c 0.6458305,-0.1249724 1.3281215,-0.2760139 2.046875,-0.453125 0.71874505,-0.1770552 1.432286,-0.3749717 2.140625,-0.59375 0.7083262,-0.2187212 1.3854089,-0.453096 2.03125,-0.703125 0.6458243,-0.2499705 1.2395737,-0.4999703 1.78125,-0.75 l 1.0625,0 0,26.7499999 c -1.13e-5,0.250003 0.3489467,0.557294 1.046875,0.921875 0.6979037,0.364585 1.8072776,0.69271 3.328125,0.984375 l 0,1.34375 z"
         style=""
         id="path3070" />
    </g>
    <g
       style="font-size:6px;font-style:normal;font-variant:normal;font-weight:normal;font-stretch:normal;line-height:125%;letter-spacing:0px;word-spacing:0px;fill:#000000;fill-opacity:1;stroke:none;font-family:Gentium;-inkscape-font-specification:Gentium"
       id="flowRoot3050" />
    <path
       transform="matrix(0.5,0,0,0.5,22.1875,-13.562502)"
       style="fill:#000000;fill-opacity:1;fill-rule:nonzero;stroke:#b6b6b6;stroke-width:0;stroke-linecap:square;stroke-linejoin:miter;stroke-miterlimit:2;stroke-dashoffset:0;stroke-opacity:1"
       d="m 40,40 c 0,8.284271 -6.715729,15 -15,15 -8.284271,0 -15,-6.715729 -15,-15 0,-8.284271 6.715729,-15 15,-15 8.284271,0 15,6.715729 15,15 z"
       id="path3832-1" />
    <g
       style="font-size:64px;font-style:normal;font-variant:normal;font-weight:normal;font-stretch:normal;line-height:125%;letter-spacing:0px;word-spacing:0px;fill:#000000;fill-opacity:1;stroke:none;font-family:Gentium;-inkscape-font-specification:Gentium"
       id="text3046-7">
      <path
         d="m 85.59375,-3.7812519 c -0.62503,0.1458609 -1.135446,0.2812774 -1.53125,0.40625 -0.395862,0.1250272 -0.718779,0.265652 -0.96875,0.421875 -0.250028,0.1562767 -0.442736,0.3333599 -0.578125,0.53125 -0.135444,0.1979428 -0.255236,0.4531509 -0.359375,0.765625 L 71.71875,26.499998 c -0.875016,2.312495 -1.848974,4.29166 -2.921875,5.9375 -1.07293,1.645823 -2.187512,2.99478 -3.34375,4.046875 -1.15626,1.05207 -2.317717,1.828111 -3.484375,2.328125 -1.166673,0.499985 -2.270838,0.749984 -3.3125,0.75 -0.79167,-1.6e-5 -1.520836,-0.0521 -2.1875,-0.15625 -0.666668,-0.104182 -1.239584,-0.23439 -1.71875,-0.390625 -0.479166,-0.156265 -0.854166,-0.333348 -1.125,-0.53125 -0.270832,-0.197931 -0.406249,-0.390639 -0.40625,-0.578125 10e-7,-0.125014 0.125001,-0.375014 0.375,-0.75 0.250001,-0.375013 0.562501,-0.786471 0.9375,-1.234375 0.375,-0.447928 0.776041,-0.880219 1.203125,-1.296875 0.427082,-0.416677 0.80729,-0.729177 1.140625,-0.9375 0.999997,0.583323 1.994787,0.895823 2.984375,0.9375 0.989577,0.04166 1.869785,-0.08334 2.640625,-0.375 0.374992,-0.12501 0.812491,-0.416676 1.3125,-0.875 0.49999,-0.458342 1.005198,-1.020842 1.515625,-1.6875 0.510406,-0.666674 1.010405,-1.421881 1.5,-2.265625 0.489571,-0.843755 0.921862,-1.713545 1.296875,-2.609375 l 0.90625,-2.15625 -10.25,-26.3124999 c -0.187504,-0.5833072 -0.552087,-1.0260151 -1.09375,-1.328125 -0.541669,-0.3020561 -1.333335,-0.5676809 -2.375,-0.796875 l 0,-1.34375 12.0625,0 0,1.34375 c -0.812512,0.1041943 -1.47397,0.2083608 -1.984375,0.3125 -0.510427,0.104194 -0.90626,0.2344022 -1.1875,0.390625 -0.281259,0.1562769 -0.442717,0.348985 -0.484375,0.578125 -0.04168,0.2291929 -9e-6,0.5104426 0.125,0.84375 L 71.53125,18.249998 78.75,-1.6562519 c 0.104142,-0.3124741 0.119767,-0.5780988 0.04687,-0.796875 -0.07294,-0.2187234 -0.250024,-0.4062232 -0.53125,-0.5625 -0.281273,-0.1562229 -0.677106,-0.2916394 -1.1875,-0.40625 -0.510439,-0.1145559 -1.151063,-0.2343474 -1.921875,-0.359375 l 0,-1.34375 10.4375,0 z"
         style=""
         id="path3075" />
    </g>
    <g
       style="font-size:64px;font-style:normal;font-variant:normal;font-weight:normal;font-stretch:normal;line-height:125%;letter-spacing:0px;word-spacing:0px;fill:#000000;fill-opacity:1;stroke:none;font-family:Gentium;-inkscape-font-specification:Gentium"
       id="text3046-0">
      <path
         d="m 446.875,-15.125002 c -10e-6,0.583372 -0.0938,1.135455 -0.28125,1.65625 -0.18751,0.52087 -0.44272,0.973995 -0.76563,1.359375 -0.32292,0.385452 -0.70313,0.692744 -1.14062,0.921875 -0.43751,0.229202 -0.91668,0.343785 -1.4375,0.34375 -0.93751,3.5e-5 -1.60938,-0.260382 -2.01563,-0.78125 -0.40625,-0.520797 -0.60938,-1.26038 -0.60937,-2.21875 -10e-6,-0.583295 0.0937,-1.135378 0.28125,-1.65625 0.18749,-0.520793 0.44791,-0.973918 0.78125,-1.359375 0.33333,-0.385375 0.71353,-0.687458 1.14062,-0.90625 0.42708,-0.218708 0.89062,-0.328083 1.39063,-0.328125 1.77082,4.2e-5 2.65624,0.989624 2.65625,2.96875 z m -10,39.0625 0,-1.34375 c 1.41666,-0.291665 2.5,-0.609373 3.25,-0.953125 0.74999,-0.343747 1.12499,-0.661455 1.125,-0.953125 l 0,-9.71875 -4.375,0 -0.71875,-0.6875 c 0.10417,-0.3333193 0.20833,-0.6874856 0.3125,-1.0624999 0.10416,-0.3749849 0.23958,-0.7291512 0.40625,-1.0625 l 4.375,0 0,-5.15625 c -10e-6,-1.062478 -0.0208,-1.9218521 -0.0625,-2.57812501 -0.0417,-0.65622583 -0.19792,-1.16664198 -0.46875,-1.53124999 -0.27084,-0.3645579 -0.70313,-0.6301827 -1.29688,-0.796875 -0.59375,-0.1666407 -1.44271,-0.3020572 -2.54687,-0.40625 l 0,-1.25 c 0.64583,-0.1249724 1.32812,-0.2760139 2.04687,-0.453125 0.71875,-0.1770552 1.43229,-0.3749717 2.14063,-0.59375 0.70833,-0.2187212 1.38541,-0.453096 2.03125,-0.703125 0.64582,-0.2499705 1.23957,-0.4999703 1.78125,-0.75 l 1.0625,0 0,14.21875 4.375,0 0.6875,0.78125 -0.6875,2.0312499 -4.375,0 0,9.71875 c -10e-6,0.250003 0.34895,0.557294 1.04687,0.921875 0.69791,0.364585 1.80728,0.69271 3.32813,0.984375 l 0,1.34375 z"
         style=""
         id="path3078" />
    </g>
    <path
       transform="matrix(0.5,0,0,0.5,462.1875,-13.562502)"
       style="fill:#000000;fill-opacity:1;fill-rule:nonzero;stroke:#b6b6b6;stroke-width:0;stroke-linecap:square;stroke-linejoin:miter;stroke-miterlimit:2;stroke-dashoffset:0;stroke-opacity:1"
       d="m 40,40 c 0,8.284271 -6.715729,15 -15,15 -8.284271,0 -15,-6.715729 -15,-15 0,-8.284271 6.715729,-15 15,-15 8.284271,0 15,6.715729 15,15 z"
       id="path3832-1-4" />
    <g
       style="font-size:64px;font-style:normal;font-variant:normal;font-weight:normal;font-stretch:normal;line-height:125%;letter-spacing:0px;word-spacing:0px;fill:#000000;fill-opacity:1;stroke:none;font-family:Gentium;-inkscape-font-specification:Gentium"
       id="text3046-7-8">
      <path
         d="m 509.46875,21.124998 c 0.66665,3e-6 1.34894,-0.09896 2.04687,-0.296875 0.6979,-0.197913 1.41665,-0.510413 2.15625,-0.9375 0.73957,-0.427079 1.51561,-0.979162 2.32813,-1.65625 0.81248,-0.677077 1.67706,-1.505201 2.59375,-2.484375 l 0,-4.78125 -13.90625,0 0,2.53125 c -10e-6,1.458342 0.10936,2.677091 0.32812,3.65625 0.21874,0.979173 0.53124,1.760422 0.9375,2.34375 0.40624,0.583337 0.90624,1.000004 1.5,1.25 0.59374,0.250003 1.26562,0.375003 2.01563,0.375 z m 17.125,-10.15625 -3.3125,0 0,5.03125 c -3e-5,1.291673 0.0468,2.343756 0.14062,3.15625 0.0937,0.812504 0.28643,1.32292 0.57813,1.53125 0.24997,0.16667 0.67705,0.203128 1.28125,0.109375 0.60414,-0.09375 1.43747,-0.369788 2.5,-0.828125 l 0.3125,1.40625 c -0.77087,0.500002 -1.51045,0.963543 -2.21875,1.390625 -0.70836,0.427084 -1.36461,0.796875 -1.96875,1.109375 -0.6042,0.3125 -1.13544,0.557291 -1.59375,0.734375 -0.45836,0.177083 -0.81253,0.265624 -1.0625,0.265625 -0.72919,-1e-6 -1.32294,-0.484375 -1.78125,-1.453125 -0.45836,-0.968748 -0.75002,-2.526039 -0.875,-4.671875 -1.29169,1.291671 -2.47398,2.338545 -3.54688,3.140625 -1.07293,0.802085 -2.06251,1.421876 -2.96875,1.859375 -0.90626,0.4375 -1.73959,0.734375 -2.5,0.890625 -0.76043,0.156249 -1.47397,0.234374 -2.14062,0.234375 -0.97918,-1e-6 -1.91668,-0.135417 -2.8125,-0.40625 -0.89584,-0.270834 -1.68751,-0.765625 -2.375,-1.484375 -0.68751,-0.718748 -1.23438,-1.703122 -1.64063,-2.953125 -0.40625,-1.249995 -0.60938,-2.85416 -0.60937,-4.8125 l 0,-4.25 -3.3125,0 -0.71875,-0.6875 c 0.10417,-0.3333193 0.20833,-0.6874856 0.3125,-1.0624999 0.10416,-0.3749849 0.23958,-0.7291512 0.40625,-1.0625 l 3.3125,0 0,-6.4375 c -10e-6,-0.99997679 -0.0313,-1.77601768 -0.0937,-2.32812501 -0.0625,-0.55205819 -0.22396,-0.96872449 -0.48438,-1.24999999 -0.26042,-0.2812239 -0.66146,-0.4739321 -1.20312,-0.578125 -0.54167,-0.1041402 -1.29167,-0.2083068 -2.25,-0.3125 l 0,-1.25 c 0.75,-0.083305 1.45312,-0.1874719 2.10937,-0.3125 0.65625,-0.1249716 1.29167,-0.2708048 1.90625,-0.4375 0.61458,-0.1666378 1.23437,-0.359346 1.85938,-0.578125 0.62499,-0.2187205 1.28124,-0.4635119 1.96875,-0.734375 l 0.875,1.21875 0,13 13.90625,0 0,-6.4375 c -2e-5,-0.93747685 -0.0469,-1.6874761 -0.14063,-2.25000001 -0.0938,-0.56247499 -0.29689,-0.99997449 -0.60937,-1.31249999 -0.31252,-0.3124739 -0.75523,-0.5312237 -1.32813,-0.65625 -0.57293,-0.1249734 -1.33856,-0.2083067 -2.29687,-0.25 l 0,-1.25 c 1.49998,-0.1874719 2.93748,-0.4791383 4.3125,-0.875 1.37497,-0.3958041 2.64581,-0.7916371 3.8125,-1.1875 l 0.9375,1.21875 0,13 3.3125,0 0.6875,0.78125 z"
         style=""
         id="path3082" />
    </g>
    <g
       style="font-size:64px;font-style:normal;font-variant:normal;font-weight:normal;font-stretch:normal;line-height:125%;letter-spacing:0px;word-spacing:0px;fill:#000000;fill-opacity:1;stroke:none;font-family:Gentium;-inkscape-font-specification:Gentium"
       id="text3046-0-2">
      <path
         d="m 845.96875,-7.0000019 c 1.4375,-0.1666386 2.79687,-0.427055 4.07812,-0.78125 1.28125,-0.3541376 2.53646,-0.7812205 3.76563,-1.28125 l 0.875,1.21875 0,19.4999999 c -10e-6,1.208341 0.0729,2.20834 0.21875,3 0.14582,0.791672 0.35936,1.42188 0.64062,1.890625 0.28124,0.468754 0.63541,0.796879 1.0625,0.984375 0.42708,0.187503 0.91145,0.281253 1.45313,0.28125 0.68749,3e-6 1.39582,-0.130205 2.125,-0.390625 0.72915,-0.260413 1.48957,-0.687496 2.28125,-1.28125 0.79165,-0.593745 1.61456,-1.359369 2.46875,-2.296875 0.85415,-0.937492 1.76039,-2.083324 2.71875,-3.4375 l 0,-12.4687499 c -2e-5,-0.7708096 -0.0417,-1.380184 -0.125,-1.828125 -0.0834,-0.4478914 -0.26044,-0.7968494 -0.53125,-1.046875 -0.27086,-0.2499739 -0.6771,-0.427057 -1.21875,-0.53125 -0.54169,-0.1041402 -1.26044,-0.1978901 -2.15625,-0.28125 l 0,-1.25 c 0.74998,-0.1041386 1.45831,-0.2187219 2.125,-0.34375 0.66664,-0.1249716 1.31248,-0.2708048 1.9375,-0.4375 0.62498,-0.1666378 1.24477,-0.3541376 1.85937,-0.5625 0.61456,-0.2083039 1.25519,-0.4478869 1.92188,-0.71875 l 0.875,1.21875 0,19.4999999 c -3e-5,1.208341 0.0677,2.20834 0.20312,3 0.13539,0.791672 0.34373,1.42188 0.625,1.890625 0.28123,0.468754 0.63539,0.796879 1.0625,0.984375 0.42706,0.187503 0.92185,0.281253 1.48438,0.28125 0.7083,3e-6 1.41663,-0.130205 2.125,-0.390625 0.7083,-0.260413 1.45309,-0.687496 2.23437,-1.28125 0.78122,-0.593745 1.59893,-1.359369 2.45313,-2.296875 0.85413,-0.937492 1.78121,-2.083324 2.78125,-3.4375 l 0,-12.4687499 c -4e-5,-0.8333095 -0.0834,-1.4843505 -0.25,-1.953125 -0.16671,-0.4687246 -0.42712,-0.8228909 -0.78125,-1.0625 -0.35421,-0.2395571 -0.80733,-0.3958069 -1.35938,-0.46875 -0.55212,-0.07289 -1.21357,-0.1405984 -1.98437,-0.203125 l 0,-1.25 c 1.41663,-0.1874719 2.81246,-0.4687216 4.1875,-0.84375 1.37496,-0.3749709 2.68746,-0.7812204 3.9375,-1.21875 0.0208,0.020863 0.0989,0.1250299 0.23437,0.3125 0.13538,0.1875295 0.28642,0.3906543 0.45313,0.609375 0.16662,0.2187789 0.24995,0.3281537 0.25,0.328125 l 0,21.9062499 c -5e-5,0.916673 0.0625,1.718755 0.1875,2.40625 0.12495,0.687504 0.33329,1.10417 0.625,1.25 0.29162,0.145836 0.75516,0.145836 1.39062,0 0.63537,-0.14583 1.38016,-0.39583 2.23438,-0.75 l 0.375,1.375 c -0.70838,0.458336 -1.41151,0.901043 -2.10938,1.328125 -0.69796,0.427084 -1.35421,0.802084 -1.96875,1.125 -0.61462,0.322917 -1.16671,0.578125 -1.65625,0.765625 -0.48962,0.187499 -0.89066,0.281249 -1.20312,0.28125 -0.25004,-1e-6 -0.52608,-0.151042 -0.82813,-0.453125 -0.30212,-0.302083 -0.57816,-0.770833 -0.82812,-1.40625 -0.25004,-0.635415 -0.46358,-1.453123 -0.64063,-2.453125 -0.17712,-0.999996 -0.26566,-2.197911 -0.26562,-3.59375 -0.91671,1.270839 -1.86462,2.395838 -2.84375,3.375 -0.9792,0.979169 -1.95316,1.807294 -2.92188,2.484375 -0.96878,0.677084 -1.90107,1.1875 -2.79687,1.53125 -0.89586,0.343749 -1.71878,0.515624 -2.46875,0.515625 -1.18753,-1e-6 -2.20315,-0.234376 -3.04688,-0.703125 -0.84377,-0.46875 -1.53127,-1.062499 -2.0625,-1.78125 -0.53127,-0.718748 -0.91669,-1.52083 -1.15625,-2.40625 -0.2396,-0.885412 -0.35939,-1.755203 -0.35937,-2.609375 l 0,-0.34375 c -1.91669,2.520838 -3.84898,4.458336 -5.79688,5.8125 -1.94793,1.354166 -3.69272,2.031249 -5.23437,2.03125 -1.00001,-1e-6 -1.90626,-0.156251 -2.71875,-0.46875 -0.81251,-0.3125 -1.50522,-0.786458 -2.07813,-1.421875 -0.57292,-0.635415 -1.02083,-1.442706 -1.34375,-2.421875 -0.32292,-0.979162 -0.48438,-2.135411 -0.48437,-3.46875 l 0,-16.1562499 c -10e-6,-0.8124762 -0.0521,-1.4478922 -0.15625,-1.90625 -0.10417,-0.458308 -0.3073,-0.807266 -0.60938,-1.046875 -0.30208,-0.2395571 -0.71354,-0.4010153 -1.23437,-0.484375 -0.52084,-0.083307 -1.19792,-0.1666401 -2.03125,-0.25 l 0,-1.25 z"
         style=""
         id="path3085" />
    </g>
    <path
       transform="matrix(0.5,0,0,0.5,899.6875,-14.062502)"
       style="fill:#000000;fill-opacity:1;fill-rule:nonzero;stroke:#b6b6b6;stroke-width:0;stroke-linecap:square;stroke-linejoin:miter;stroke-miterlimit:2;stroke-dashoffset:0;stroke-opacity:1"
       d="m 40,40 c 0,8.284271 -6.715729,15 -15,15 -8.284271,0 -15,-6.715729 -15,-15 0,-8.284271 6.715729,-15 15,-15 8.284271,0 15,6.715729 15,15 z"
       id="path3832-1-4-5" />
    <g
       style="font-size:64px;font-style:normal;font-variant:normal;font-weight:normal;font-stretch:normal;line-height:125%;letter-spacing:0px;word-spacing:0px;fill:#000000;fill-opacity:1;stroke:none;font-family:Gentium;-inkscape-font-specification:Gentium"
       id="text3046-7-8-5">
      <path
         d="m 963.09375,18.374998 c -0.77087,0.500002 -1.51045,0.963543 -2.21875,1.390625 -0.70836,0.427084 -1.36461,0.796875 -1.96875,1.109375 -0.6042,0.3125 -1.13544,0.557291 -1.59375,0.734375 -0.45836,0.177083 -0.81253,0.265624 -1.0625,0.265625 -0.72919,-1e-6 -1.32294,-0.484375 -1.78125,-1.453125 -0.45836,-0.968748 -0.75002,-2.526039 -0.875,-4.671875 -1.29169,1.291671 -2.47398,2.338545 -3.54688,3.140625 -1.07293,0.802085 -2.06251,1.421876 -2.96875,1.859375 -0.90626,0.4375 -1.73959,0.734375 -2.5,0.890625 -0.76043,0.156249 -1.47397,0.234374 -2.14062,0.234375 -0.97918,-1e-6 -1.91668,-0.135417 -2.8125,-0.40625 -0.89584,-0.270834 -1.68751,-0.765625 -2.375,-1.484375 -0.68751,-0.718748 -1.23438,-1.703122 -1.64063,-2.953125 -0.40625,-1.249995 -0.60938,-2.85416 -0.60937,-4.8125 l 0,-13.4999999 c -10e-6,-0.9999768 -0.0313,-1.7760177 -0.0937,-2.328125 -0.0625,-0.5520582 -0.22396,-0.9687245 -0.48438,-1.25 -0.26042,-0.2812239 -0.66146,-0.4739321 -1.20312,-0.578125 -0.54167,-0.1041402 -1.29167,-0.2083068 -2.25,-0.3125 l 0,-1.25 c 0.75,-0.083305 1.45312,-0.1874719 2.10937,-0.3125 0.65625,-0.1249716 1.29167,-0.2708048 1.90625,-0.4375 0.61458,-0.1666378 1.23437,-0.359346 1.85938,-0.578125 0.62499,-0.2187205 1.28124,-0.4635119 1.96875,-0.734375 l 0.875,1.21875 0,18.3437499 c -10e-6,1.458342 0.10936,2.677091 0.32812,3.65625 0.21874,0.979173 0.53124,1.760422 0.9375,2.34375 0.40624,0.583337 0.90624,1.000004 1.5,1.25 0.59374,0.250003 1.26562,0.375003 2.01563,0.375 0.66665,3e-6 1.34894,-0.09896 2.04687,-0.296875 0.6979,-0.197913 1.41665,-0.510413 2.15625,-0.9375 0.73957,-0.427079 1.51561,-0.979162 2.32813,-1.65625 0.81248,-0.677077 1.67706,-1.505201 2.59375,-2.484375 l 0,-14.0312499 c -2e-5,-0.9374769 -0.0469,-1.6874761 -0.14063,-2.25 -0.0938,-0.562475 -0.29689,-0.9999745 -0.60937,-1.3125 -0.31252,-0.3124739 -0.75523,-0.5312237 -1.32813,-0.65625 -0.57293,-0.1249734 -1.33856,-0.2083067 -2.29687,-0.25 l 0,-1.25 c 1.49998,-0.1874719 2.93748,-0.4791383 4.3125,-0.875 1.37497,-0.3958041 2.64581,-0.7916371 3.8125,-1.1875 l 0.9375,1.21875 0,20.8437499 c -3e-5,1.291673 0.0468,2.343756 0.14062,3.15625 0.0937,0.812504 0.28643,1.32292 0.57813,1.53125 0.24997,0.16667 0.67705,0.203128 1.28125,0.109375 0.60414,-0.09375 1.43747,-0.369788 2.5,-0.828125 l 0.3125,1.40625 z"
         style=""
         id="path3089" />
    </g>
    <g
       style="font-size:64px;font-style:normal;font-variant:normal;font-weight:normal;font-stretch:normal;line-height:125%;letter-spacing:0px;word-spacing:0px;fill:#000000;fill-opacity:1;stroke:none;font-family:Gentium;-inkscape-font-specification:Gentium"
       id="text3046-6">
      <path
         d="m 140.6875,214.6875 c -1.06251,3e-5 -2.04168,0.20836 -2.9375,0.625 -0.89585,0.41669 -1.69272,1.00003 -2.39063,1.75 -0.69792,0.75002 -1.28125,1.65627 -1.75,2.71875 -0.46875,1.06252 -0.80729,2.2396 -1.01562,3.53125 l 13.34375,0 c 0.47915,2e-5 0.79685,-0.0781 0.95312,-0.23438 0.15623,-0.15623 0.23436,-0.4531 0.23438,-0.89062 -2e-5,-0.37498 -0.0313,-0.8229 -0.0937,-1.34375 -0.0625,-0.52081 -0.18231,-1.05727 -0.35938,-1.60938 -0.1771,-0.55206 -0.41668,-1.09893 -0.71875,-1.64062 -0.3021,-0.54164 -0.69272,-1.02602 -1.17187,-1.45313 -0.47919,-0.42705 -1.05731,-0.77601 -1.73438,-1.04687 -0.6771,-0.27081 -1.46355,-0.40622 -2.35937,-0.40625 z m 11.5625,9.34375 c -0.37503,0.41668 -0.87503,0.8021 -1.5,1.15625 -0.62502,0.35418 -1.27086,0.66668 -1.9375,0.9375 l -16.4375,0 0,0.0937 c -1e-5,1.56251 0.21353,3.06772 0.64062,4.51562 0.42708,1.44793 1.03645,2.72918 1.82813,3.84375 0.79166,1.11459 1.76041,2.00522 2.90625,2.67188 1.14582,0.66667 2.43748,1 3.875,1 0.64582,0 1.27602,-0.0365 1.89062,-0.10938 0.61457,-0.0729 1.27603,-0.24999 1.98438,-0.53125 0.70831,-0.28124 1.49477,-0.70312 2.35937,-1.26562 0.86456,-0.56249 1.88019,-1.32291 3.04688,-2.28125 0.27081,0.14584 0.50518,0.35417 0.70312,0.625 0.1979,0.27084 0.34894,0.48959 0.45313,0.65625 -1.39586,1.52084 -2.61982,2.7448 -3.67188,3.67187 -1.0521,0.92709 -2.04168,1.64063 -2.96875,2.14063 -0.9271,0.5 -1.84376,0.82812 -2.75,0.98437 -0.90626,0.15625 -1.89064,0.23438 -2.95312,0.23438 -1.60418,0 -3.13022,-0.34375 -4.57813,-1.03125 -1.44792,-0.6875 -2.72396,-1.66146 -3.82812,-2.92188 -1.10417,-1.26041 -1.98438,-2.78124 -2.64063,-4.5625 -0.65625,-1.78124 -0.98437,-3.77603 -0.98437,-5.98437 0,-1.39582 0.15625,-2.77082 0.46875,-4.125 0.3125,-1.35415 0.76562,-2.6354 1.35937,-3.84375 0.59375,-1.20831 1.31771,-2.32289 2.17188,-3.34375 0.85416,-1.02081 1.82291,-1.90622 2.90625,-2.65625 0.45832,-0.31247 0.97395,-0.61976 1.54687,-0.92188 0.57291,-0.30205 1.17187,-0.56767 1.79688,-0.79687 0.62499,-0.22914 1.24478,-0.41143 1.85937,-0.54688 0.61457,-0.13538 1.20311,-0.20309 1.76563,-0.20312 1.37498,3e-5 2.58852,0.18753 3.64062,0.5625 1.05207,0.37503 1.97394,0.88024 2.76563,1.51562 0.79164,0.63545 1.45831,1.37503 2,2.21875 0.54164,0.84378 0.98435,1.7344 1.32812,2.67188 0.34373,0.93752 0.58852,1.89065 0.73438,2.85937 0.14581,0.96877 0.21872,1.89065 0.21875,2.76563 z"
         style=""
         id="path3092" />
    </g>
    <path
       transform="matrix(0.5,0,0,0.5,164.6875,203.9375)"
       style="fill:#000000;fill-opacity:1;fill-rule:nonzero;stroke:#b6b6b6;stroke-width:0;stroke-linecap:square;stroke-linejoin:miter;stroke-miterlimit:2;stroke-dashoffset:0;stroke-opacity:1"
       d="m 40,40 c 0,8.284271 -6.715729,15 -15,15 -8.284271,0 -15,-6.715729 -15,-15 0,-8.284271 6.715729,-15 15,-15 8.284271,0 15,6.715729 15,15 z"
       id="path3832-1-42" />
    <g
       style="font-size:64px;font-style:normal;font-variant:normal;font-weight:normal;font-stretch:normal;line-height:125%;letter-spacing:0px;word-spacing:0px;fill:#000000;fill-opacity:1;stroke:none;font-family:Gentium;-inkscape-font-specification:Gentium"
       id="text3046-7-3">
      <path
         d="m 222.09375,227.21875 c -2e-5,-1.24998 -0.16669,-2.46352 -0.5,-3.64063 -0.33336,-1.17706 -0.77086,-2.2656 -1.3125,-3.26562 l -11.96875,15.84375 c 0.83332,0.875 1.70832,1.5573 2.625,2.04687 0.91665,0.48959 1.79165,0.73438 2.625,0.73438 1.47915,0 2.75519,-0.27604 3.82812,-0.82813 1.0729,-0.55207 1.95832,-1.33853 2.65625,-2.35937 0.6979,-1.02083 1.21352,-2.24999 1.54688,-3.6875 0.33331,-1.43749 0.49998,-3.05207 0.5,-4.84375 z m -17.625,-0.5625 c -1e-5,1.27085 0.17187,2.48439 0.51562,3.64062 0.34375,1.15626 0.80729,2.23439 1.39063,3.23438 l 12,-15.875 c -0.81252,-0.87498 -1.68231,-1.55727 -2.60938,-2.04688 -0.9271,-0.48955 -1.84897,-0.73434 -2.76562,-0.73437 -1.58335,3e-5 -2.91668,0.30211 -4,0.90625 -1.08334,0.60419 -1.96355,1.43232 -2.64063,2.48437 -0.67709,1.05211 -1.16146,2.2969 -1.45312,3.73438 -0.29167,1.43752 -0.43751,2.9896 -0.4375,4.65625 z M 226.75,211.75 l -3.1875,4.21875 c 1.06247,1.31252 1.88018,2.84377 2.45312,4.59375 0.57289,1.75002 0.85935,3.65627 0.85938,5.71875 -3e-5,1.37501 -0.17711,2.73439 -0.53125,4.07812 -0.3542,1.34376 -0.84378,2.60939 -1.46875,3.79688 -0.62503,1.18751 -1.37503,2.28646 -2.25,3.29687 -0.87502,1.01042 -1.83857,1.88022 -2.89063,2.60938 -1.0521,0.72917 -2.17189,1.29688 -3.35937,1.70312 -1.18752,0.40625 -2.41668,0.60938 -3.6875,0.60938 -1.43751,0 -2.77085,-0.19792 -4,-0.59375 -1.22918,-0.39583 -2.34376,-0.95833 -3.34375,-1.6875 L 204.75,240.875 c -0.18751,0.16667 -0.45313,0.35938 -0.79688,0.57812 -0.34375,0.21875 -0.70313,0.4375 -1.07812,0.65625 -0.37501,0.21875 -0.7448,0.41667 -1.10938,0.59375 -0.36458,0.17709 -0.67187,0.3073 -0.92187,0.39063 l -0.90625,-1.03125 3.125,-4.125 c -1.08334,-1.3125 -1.91667,-2.84895 -2.5,-4.60938 -0.58334,-1.7604 -0.875,-3.68227 -0.875,-5.76562 0,-1.37498 0.17187,-2.72915 0.51562,-4.0625 0.34375,-1.33331 0.82292,-2.59894 1.4375,-3.79688 0.61458,-1.19789 1.35417,-2.30205 2.21875,-3.3125 0.86458,-1.01039 1.82291,-1.88018 2.875,-2.60937 1.05208,-0.72914 2.18228,-1.30205 3.39063,-1.71875 1.20832,-0.41664 2.46873,-0.62497 3.78125,-0.625 1.43748,3e-5 2.77602,0.20315 4.01562,0.60937 1.23957,0.40628 2.36977,0.98441 3.39063,1.73438 l 0.65625,-0.875 c 0.27081,-0.18747 0.56768,-0.3906 0.89062,-0.60938 0.3229,-0.21872 0.65102,-0.43226 0.98438,-0.64062 0.33331,-0.2083 0.66664,-0.3958 1,-0.5625 0.33331,-0.16664 0.64581,-0.29164 0.9375,-0.375 z"
         style=""
         id="path3096" />
    </g>
    <g
       style="font-size:64px;font-style:normal;font-variant:normal;font-weight:normal;font-stretch:normal;line-height:125%;letter-spacing:0px;word-spacing:0px;fill:#000000;fill-opacity:1;stroke:none;font-family:Gentium;-inkscape-font-specification:Gentium"
       id="text3046-6-2">
      <path
         d="m 495.6875,224.03125 c 0,-0.87498 0.13541,-1.79686 0.40625,-2.76563 0.27083,-0.96872 0.66666,-1.92185 1.1875,-2.85937 0.52083,-0.93748 1.16145,-1.8281 1.92187,-2.67188 0.76041,-0.84372 1.63021,-1.5833 2.60938,-2.21875 0.97916,-0.63538 2.06249,-1.14059 3.25,-1.51562 1.18749,-0.37497 2.45832,-0.56247 3.8125,-0.5625 1.93748,3e-5 3.61977,0.43753 5.04687,1.3125 1.42707,0.87503 2.60936,2.01044 3.54688,3.40625 0.93747,1.39586 1.63539,2.95836 2.09375,4.6875 0.45831,1.72919 0.68747,3.44793 0.6875,5.15625 -3e-5,1.10418 -0.0469,2.1198 -0.14063,3.04687 -0.0938,0.9271 -0.25002,1.81252 -0.46875,2.65625 -0.21877,0.84376 -0.51565,1.66668 -0.89062,2.46875 -0.37503,0.80209 -0.84377,1.6198 -1.40625,2.45313 -0.54169,0.79167 -1.17711,1.53646 -1.90625,2.23437 -0.72919,0.69792 -1.52085,1.3073 -2.375,1.82813 -0.85419,0.52083 -1.74481,0.93229 -2.67188,1.23437 -0.92709,0.30209 -1.85939,0.45313 -2.79687,0.45313 -1.00001,0 -2.01564,-0.099 -3.04688,-0.29688 -1.03126,-0.19791 -2.0573,-0.55208 -3.07812,-1.0625 -1.02084,-0.51041 -2.00521,-1.22395 -2.95313,-2.14062 -0.94792,-0.91666 -1.82812,-2.09375 -2.64062,-3.53125 0.10416,-0.16666 0.25521,-0.38541 0.45312,-0.65625 0.19792,-0.27083 0.43229,-0.47916 0.70313,-0.625 0.875,0.91667 1.77083,1.64584 2.6875,2.1875 0.91666,0.54167 1.80728,0.96355 2.67187,1.26562 0.86458,0.30209 1.66145,0.50001 2.39063,0.59375 0.72915,0.0938 1.34374,0.14063 1.84375,0.14063 1.66665,0 3.0729,-0.30208 4.21875,-0.90625 1.14581,-0.60416 2.06769,-1.39583 2.76562,-2.375 0.6979,-0.97916 1.1979,-2.09374 1.5,-3.34375 0.30207,-1.24999 0.45311,-2.53124 0.45313,-3.84375 -2e-5,-0.54165 -0.0313,-1.09374 -0.0937,-1.65625 l -16.34375,0 c -0.66667,-0.27082 -1.3125,-0.58332 -1.9375,-0.9375 -0.625,-0.35415 -1.125,-0.73957 -1.5,-1.15625 z M 507.25,214.6875 c -0.91668,3e-5 -1.70835,0.13544 -2.375,0.40625 -0.66668,0.27086 -1.23959,0.61982 -1.71875,1.04687 -0.47918,0.42711 -0.8698,0.91149 -1.17188,1.45313 -0.30209,0.54169 -0.54167,1.08856 -0.71875,1.64062 -0.17709,0.55211 -0.29688,1.08857 -0.35937,1.60938 -0.0625,0.52085 -0.0938,0.96877 -0.0937,1.34375 -10e-6,0.43752 0.0781,0.73439 0.23437,0.89062 0.15625,0.15627 0.47395,0.2344 0.95313,0.23438 l 13,0 c -0.29169,-1.14581 -0.68231,-2.23956 -1.17188,-3.28125 -0.4896,-1.04164 -1.06251,-1.95831 -1.71875,-2.75 -0.65626,-0.79164 -1.39585,-1.42185 -2.21875,-1.89063 -0.82293,-0.46872 -1.70314,-0.70309 -2.64062,-0.70312 z"
         style=""
         id="path3099" />
    </g>
    <path
       transform="matrix(0.5,0,0,0.5,532.6875,203.9375)"
       style="fill:#000000;fill-opacity:1;fill-rule:nonzero;stroke:#b6b6b6;stroke-width:0;stroke-linecap:square;stroke-linejoin:miter;stroke-miterlimit:2;stroke-dashoffset:0;stroke-opacity:1"
       d="m 40,40 c 0,8.284271 -6.715729,15 -15,15 -8.284271,0 -15,-6.715729 -15,-15 0,-8.284271 6.715729,-15 15,-15 8.284271,0 15,6.715729 15,15 z"
       id="path3832-1-42-6" />
    <g
       style="font-size:64px;font-style:normal;font-variant:normal;font-weight:normal;font-stretch:normal;line-height:125%;letter-spacing:0px;word-spacing:0px;fill:#000000;fill-opacity:1;stroke:none;font-family:Gentium;-inkscape-font-specification:Gentium"
       id="text3046-7-3-8">
      <path
         d="m 581.5625,238.9375 c 1.37498,0 2.57811,-0.24479 3.60937,-0.73438 1.03123,-0.48957 1.89582,-1.18749 2.59375,-2.09375 0.6979,-0.90624 1.23436,-2.0052 1.60938,-3.29687 0.37498,-1.29166 0.60414,-2.73957 0.6875,-4.34375 l -17.46875,0 c 0.20833,1.45834 0.6302,2.82293 1.26562,4.09375 0.63541,1.27084 1.37499,2.38021 2.21875,3.32812 0.84374,0.94793 1.74999,1.69272 2.71875,2.23438 0.96874,0.54167 1.89061,0.8125 2.76563,0.8125 z M 581,214.875 c -1.50001,3e-5 -2.78126,0.27086 -3.84375,0.8125 -1.06251,0.54169 -1.9323,1.2969 -2.60938,2.26562 -0.67709,0.96878 -1.17709,2.1094 -1.5,3.42188 -0.32292,1.31252 -0.51563,2.7396 -0.57812,4.28125 l 17.53125,0 c -0.16669,-1.47915 -0.5469,-2.86977 -1.14063,-4.17188 -0.59377,-1.30206 -1.30731,-2.44268 -2.14062,-3.42187 -0.83335,-0.97914 -1.75002,-1.75518 -2.75,-2.32813 -1.00002,-0.57289 -1.9896,-0.85934 -2.96875,-0.85937 z m 13.875,11.40625 c -3e-5,1.37501 -0.17711,2.73439 -0.53125,4.07812 -0.3542,1.34376 -0.84378,2.60939 -1.46875,3.79688 -0.62503,1.18751 -1.37503,2.28646 -2.25,3.29687 -0.87502,1.01042 -1.83857,1.88022 -2.89063,2.60938 -1.0521,0.72917 -2.17189,1.29688 -3.35937,1.70312 -1.18752,0.40625 -2.41668,0.60938 -3.6875,0.60938 -1.97918,0 -3.76564,-0.375 -5.35938,-1.125 -1.59375,-0.75 -2.95834,-1.78125 -4.09375,-3.09375 -1.13542,-1.3125 -2.01042,-2.87499 -2.625,-4.6875 -0.61458,-1.81249 -0.92187,-3.78124 -0.92187,-5.90625 0,-1.37498 0.17187,-2.72915 0.51562,-4.0625 0.34375,-1.33331 0.82292,-2.59894 1.4375,-3.79688 0.61458,-1.19789 1.35417,-2.30205 2.21875,-3.3125 0.86458,-1.01039 1.82291,-1.88018 2.875,-2.60937 1.05208,-0.72914 2.18228,-1.30205 3.39063,-1.71875 1.20832,-0.41664 2.46873,-0.62497 3.78125,-0.625 1.95831,3e-5 3.73435,0.37503 5.32812,1.125 1.59373,0.75003 2.95831,1.78649 4.09375,3.10937 1.13539,1.32295 2.01039,2.89065 2.625,4.70313 0.61456,1.81252 0.92185,3.78127 0.92188,5.90625 z"
         style=""
         id="path3103" />
    </g>
    <g
       style="font-size:64px;font-style:normal;font-variant:normal;font-weight:normal;font-stretch:normal;line-height:125%;letter-spacing:0px;word-spacing:0px;fill:#000000;fill-opacity:1;stroke:none;font-family:Gentium;-inkscape-font-specification:Gentium"
       id="text3046-6-2-7">
      <path
         d="m 877.1875,233.125 -0.0312,0.0625 c -0.31252,0.43751 -0.64064,0.87501 -0.98438,1.3125 -0.34376,0.43751 -0.65626,0.8698 -0.9375,1.29687 -0.28126,0.4271 -0.51043,0.83855 -0.6875,1.23438 -0.17709,0.39584 -0.26563,0.77084 -0.26562,1.125 -10e-6,0.47917 0.0937,0.90105 0.28125,1.26562 0.18749,0.36459 0.43228,0.66668 0.73437,0.90625 0.30207,0.23959 0.64582,0.41667 1.03125,0.53125 0.38541,0.11459 0.78645,0.17188 1.20313,0.17188 0.79165,0 1.46873,-0.22396 2.03125,-0.67188 0.56248,-0.44791 0.84373,-1.0052 0.84375,-1.67187 -2e-5,-0.43749 -0.0938,-0.8802 -0.28125,-1.32813 -0.18752,-0.44791 -0.53127,-1.03645 -1.03125,-1.76562 z m 14.90625,-17.40625 c -0.62503,0.14586 -1.13545,0.29169 -1.53125,0.4375 -0.39586,0.14586 -0.72399,0.30211 -0.98438,0.46875 -0.26044,0.16669 -0.4844,0.34898 -0.67187,0.54687 -0.18753,0.19795 -0.37503,0.42191 -0.5625,0.67188 l -8.25,11.3125 2.28125,2.8125 c 0.45831,0.66668 0.84373,1.25522 1.15625,1.76562 0.31248,0.51043 0.55206,1.00001 0.71875,1.46875 0.16664,0.46876 0.28643,0.94272 0.35937,1.42188 0.0729,0.47917 0.10936,1.03126 0.10938,1.65625 -2e-5,0.60417 -0.13544,1.26563 -0.40625,1.98437 -0.27086,0.71876 -0.70315,1.38022 -1.29688,1.98438 -0.59377,0.60417 -1.37502,1.10938 -2.34375,1.51562 -0.96876,0.40625 -2.15105,0.60938 -3.54687,0.60938 -0.91668,0 -1.76043,-0.15625 -2.53125,-0.46875 -0.77085,-0.3125 -1.43751,-0.72396 -2,-1.23438 -0.56251,-0.51041 -1.00001,-1.09374 -1.3125,-1.75 -0.31251,-0.65624 -0.46876,-1.33853 -0.46875,-2.04687 -10e-6,-0.89583 0.17187,-1.74479 0.51562,-2.54688 0.34374,-0.80207 0.85937,-1.65103 1.54688,-2.54687 l 2.375,-3.21875 -9.65625,-12.71875 c -0.33334,-0.47914 -0.78646,-0.89581 -1.35938,-1.25 -0.57291,-0.35414 -1.38021,-0.64581 -2.42187,-0.875 l 0,-1.34375 12.0625,0 0,1.34375 c -1.60418,0.20836 -2.60418,0.47399 -3,0.79687 -0.39584,0.32295 -0.38543,0.76566 0.0312,1.32813 l 7.1875,8.84375 6.53125,-8.84375 c 0.39581,-0.52081 0.38539,-0.94789 -0.0312,-1.28125 -0.41669,-0.33331 -1.39586,-0.61456 -2.9375,-0.84375 l 0,-1.34375 10.4375,0 0,1.34375 z"
         style=""
         id="path3106" />
    </g>
    <path
       transform="matrix(0.5,0,0,0.5,900.6875,205.9375)"
       style="fill:#000000;fill-opacity:1;fill-rule:nonzero;stroke:#b6b6b6;stroke-width:0;stroke-linecap:square;stroke-linejoin:miter;stroke-miterlimit:2;stroke-dashoffset:0;stroke-opacity:1"
       d="m 40,40 c 0,8.284271 -6.715729,15 -15,15 -8.284271,0 -15,-6.715729 -15,-15 0,-8.284271 6.715729,-15 15,-15 8.284271,0 15,6.715729 15,15 z"
       id="path3832-1-42-6-1" />
    <g
       style="font-size:64px;font-style:normal;font-variant:normal;font-weight:normal;font-stretch:normal;line-height:125%;letter-spacing:0px;word-spacing:0px;fill:#000000;fill-opacity:1;stroke:none;font-family:Gentium;-inkscape-font-specification:Gentium"
       id="text3046-7-3-8-8">
      <path
         d="m 958.09375,229.21875 c -2e-5,-1.64582 -0.27086,-3.21352 -0.8125,-4.70313 -0.54169,-1.48956 -1.25002,-2.80206 -2.125,-3.9375 -0.87502,-1.13539 -1.85419,-2.03643 -2.9375,-2.70312 -1.08335,-0.66664 -2.15627,-0.99997 -3.21875,-1 -1.58335,3e-5 -2.91668,0.30211 -4,0.90625 -1.08334,0.60419 -1.96355,1.43232 -2.64063,2.48437 -0.67709,1.05211 -1.16146,2.2969 -1.45312,3.73438 -0.29167,1.43752 -0.43751,2.9896 -0.4375,4.65625 -10e-6,1.64585 0.29166,3.21355 0.875,4.70312 0.58332,1.4896 1.32291,2.79689 2.21875,3.92188 0.89582,1.12501 1.8802,2.01563 2.95312,2.67187 1.07291,0.65626 2.08853,0.98438 3.04688,0.98438 1.47915,0 2.75519,-0.27604 3.82812,-0.82813 1.0729,-0.55207 1.95832,-1.33853 2.65625,-2.35937 0.6979,-1.02083 1.21352,-2.24999 1.54688,-3.6875 0.33331,-1.43749 0.49998,-3.05207 0.5,-4.84375 z m 4.78125,-0.9375 c -3e-5,1.37501 -0.17711,2.73439 -0.53125,4.07812 -0.3542,1.34376 -0.84378,2.60939 -1.46875,3.79688 -0.62503,1.18751 -1.37503,2.28646 -2.25,3.29687 -0.87502,1.01042 -1.83857,1.88022 -2.89063,2.60938 -1.0521,0.72917 -2.17189,1.29688 -3.35937,1.70312 -1.18752,0.40625 -2.41668,0.60938 -3.6875,0.60938 -1.97918,0 -3.76564,-0.375 -5.35938,-1.125 -1.59375,-0.75 -2.95834,-1.78125 -4.09375,-3.09375 -1.13542,-1.3125 -2.01042,-2.87499 -2.625,-4.6875 -0.61458,-1.81249 -0.92187,-3.78124 -0.92187,-5.90625 0,-1.37498 0.17187,-2.72915 0.51562,-4.0625 0.34375,-1.33331 0.82292,-2.59894 1.4375,-3.79688 0.61458,-1.19789 1.35417,-2.30205 2.21875,-3.3125 0.86458,-1.01039 1.82291,-1.88018 2.875,-2.60937 1.05208,-0.72914 2.18228,-1.30205 3.39063,-1.71875 1.20832,-0.41664 2.46873,-0.62497 3.78125,-0.625 1.95831,3e-5 3.73435,0.37503 5.32812,1.125 1.59373,0.75003 2.95831,1.78649 4.09375,3.10937 1.13539,1.32295 2.01039,2.89065 2.625,4.70313 0.61456,1.81252 0.92185,3.78127 0.92188,5.90625 z"
         style=""
         id="path3110" />
    </g>
    <g
       style="font-size:64px;font-style:normal;font-variant:normal;font-weight:normal;font-stretch:normal;line-height:125%;letter-spacing:0px;word-spacing:0px;fill:#000000;fill-opacity:1;stroke:none;font-family:Gentium;-inkscape-font-specification:Gentium"
       id="text3046-6-27">
      <path
         d="m 303.09375,455.5 c -1.35419,1.60417 -2.60419,2.85938 -3.75,3.76562 -1.14585,0.90626 -2.22398,1.59376 -3.23438,2.0625 -1.01043,0.46875 -1.97397,0.76042 -2.89062,0.875 -0.91668,0.11459 -1.82293,0.17188 -2.71875,0.17188 -1.75001,0 -3.29689,-0.19792 -4.64063,-0.59375 -1.34375,-0.39583 -2.47396,-0.94792 -3.39062,-1.65625 -0.91667,-0.70833 -1.60938,-1.53646 -2.07813,-2.48438 -0.46875,-0.94791 -0.70312,-1.98436 -0.70312,-3.10937 0,-0.91666 0.17187,-1.77082 0.51562,-2.5625 0.34375,-0.79166 0.79688,-1.51561 1.35938,-2.17188 0.5625,-0.65623 1.19791,-1.23436 1.90625,-1.73437 0.70833,-0.49999 1.42708,-0.90624 2.15625,-1.21875 -1.56251,-0.60415 -2.77084,-1.41665 -3.625,-2.4375 -0.85417,-1.02082 -1.28125,-2.3854 -1.28125,-4.09375 0,-0.64581 0.125,-1.29164 0.375,-1.9375 0.25,-0.64581 0.58854,-1.26039 1.01562,-1.84375 0.42708,-0.58331 0.9375,-1.13539 1.53125,-1.65625 0.59375,-0.52081 1.23437,-0.98956 1.92188,-1.40625 0.49999,-0.31247 1.06249,-0.59893 1.6875,-0.85938 0.62499,-0.26038 1.28124,-0.47392 1.96875,-0.64062 0.68749,-0.16664 1.39061,-0.29685 2.10937,-0.39063 0.71874,-0.0937 1.42186,-0.14059 2.10938,-0.14062 0.72915,3e-5 1.47915,0.0573 2.25,0.17187 0.77081,0.11462 1.50519,0.27608 2.20312,0.48438 0.6979,0.20836 1.34894,0.46878 1.95313,0.78125 0.60414,0.31253 1.11456,0.65628 1.53125,1.03125 0.0416,0.25003 0.0104,0.60419 -0.0937,1.0625 -0.10419,0.45836 -0.25002,0.94273 -0.4375,1.45312 -0.18752,0.51045 -0.39065,1.00003 -0.60938,1.46875 -0.21877,0.46878 -0.41148,0.84899 -0.57812,1.14063 L 298.5,438.71875 c -0.18752,-0.43748 -0.47398,-0.8906 -0.85938,-1.35938 -0.38543,-0.46872 -0.89064,-0.90101 -1.51562,-1.29687 -0.62502,-0.39581 -1.36981,-0.72393 -2.23438,-0.98438 -0.86459,-0.26039 -1.84897,-0.39059 -2.95312,-0.39062 -0.89585,3e-5 -1.70314,0.12503 -2.42188,0.375 -0.71876,0.25003 -1.33334,0.58857 -1.84375,1.01562 -0.51042,0.42711 -0.90625,0.9219 -1.1875,1.48438 -0.28125,0.56252 -0.42188,1.15627 -0.42187,1.78125 -10e-6,0.64585 0.099,1.28127 0.29687,1.90625 0.19791,0.62502 0.60937,1.20314 1.23438,1.73437 0.62499,0.53127 1.51041,0.98961 2.65625,1.375 1.14582,0.38544 2.66665,0.64065 4.5625,0.76563 l 0.34375,1.65625 c -1.62502,0.10418 -3.03647,0.3646 -4.23438,0.78125 -1.19792,0.41668 -2.1823,0.9271 -2.95312,1.53125 -0.77084,0.60418 -1.33855,1.26043 -1.70313,1.96875 -0.36459,0.70834 -0.53646,1.41668 -0.51562,2.125 0.0208,0.66667 0.20312,1.31251 0.54687,1.9375 0.34375,0.62501 0.82812,1.1823 1.45313,1.67187 0.62499,0.48959 1.39061,0.88543 2.29687,1.1875 0.90624,0.30209 1.92187,0.45313 3.04688,0.45313 0.58332,0 1.19269,-0.0312 1.82812,-0.0937 0.6354,-0.0625 1.33332,-0.22916 2.09375,-0.5 0.7604,-0.27083 1.61978,-0.6927 2.57813,-1.26563 0.95831,-0.57291 2.06248,-1.35936 3.3125,-2.35937 l 1.1875,1.28125 z"
         style=""
         id="path3113" />
    </g>
    <path
       transform="matrix(0.5,0,0,0.5,316.6875,423.9375)"
       style="fill:#000000;fill-opacity:1;fill-rule:nonzero;stroke:#b6b6b6;stroke-width:0;stroke-linecap:square;stroke-linejoin:miter;stroke-miterlimit:2;stroke-dashoffset:0;stroke-opacity:1"
       d="m 40,40 c 0,8.284271 -6.715729,15 -15,15 -8.284271,0 -15,-6.715729 -15,-15 0,-8.284271 6.715729,-15 15,-15 8.284271,0 15,6.715729 15,15 z"
       id="path3832-1-42-5" />
    <g
       style="font-size:64px;font-style:normal;font-variant:normal;font-weight:normal;font-stretch:normal;line-height:125%;letter-spacing:0px;word-spacing:0px;fill:#000000;fill-opacity:1;stroke:none;font-family:Gentium;-inkscape-font-specification:Gentium"
       id="text3046-7-3-4">
      <path
         d="m 386.1875,434.6875 c -1.00004,3e-5 -1.92712,0.20836 -2.78125,0.625 -0.8542,0.41669 -1.61462,1.00003 -2.28125,1.75 -0.6667,0.75002 -1.2292,1.65627 -1.6875,2.71875 -0.45836,1.06252 -0.78128,2.2396 -0.96875,3.53125 l 12.5625,0 c 0.45829,2e-5 0.776,-0.0781 0.95312,-0.23438 0.17705,-0.15623 0.26559,-0.4531 0.26563,-0.89062 -4e-5,-0.56248 -0.0782,-1.27081 -0.23438,-2.125 -0.15629,-0.85414 -0.45316,-1.67706 -0.89062,-2.46875 -0.43754,-0.79164 -1.05212,-1.47393 -1.84375,-2.04688 -0.79171,-0.57289 -1.82295,-0.85934 -3.09375,-0.85937 z m -12.75,12.53125 c -2e-5,-1.66665 -0.26565,-3.24477 -0.79688,-4.73438 -0.53127,-1.48956 -1.2396,-2.79685 -2.125,-3.92187 -0.88543,-1.12498 -1.89064,-2.02081 -3.01562,-2.6875 -1.12502,-0.66664 -2.28127,-0.99997 -3.46875,-1 -1.12501,3e-5 -2.15105,0.30211 -3.07813,0.90625 -0.92709,0.60419 -1.72396,1.43232 -2.39062,2.48437 -0.66668,1.05211 -1.1823,2.2969 -1.54688,3.73438 -0.36459,1.43752 -0.54688,2.9896 -0.54687,4.65625 -10e-6,1.64585 0.28124,3.21355 0.84375,4.70312 0.56249,1.4896 1.29166,2.79689 2.1875,3.92188 0.89582,1.12501 1.90624,2.01563 3.03125,2.67187 1.12499,0.65626 2.24998,0.98438 3.375,0.98438 1.12498,0 2.14581,-0.29687 3.0625,-0.89063 0.91665,-0.59374 1.70831,-1.41666 2.375,-2.46875 0.66664,-1.05207 1.18227,-2.29165 1.54687,-3.71875 0.36456,-1.42707 0.54686,-2.97394 0.54688,-4.64062 z m 24,-3.1875 c -0.41671,0.41668 -0.93755,0.80731 -1.5625,1.17187 -0.62505,0.3646 -1.27088,0.68231 -1.9375,0.95313 l -15.6875,0 0,0.0625 c -3e-5,1.56251 0.2083,3.06772 0.625,4.51562 0.41664,1.44793 1.01039,2.72918 1.78125,3.84375 0.7708,1.11459 1.70309,2.00522 2.79687,2.67188 1.09372,0.66667 2.31768,1 3.67188,1 0.58329,0 1.15621,-0.0365 1.71875,-0.10938 0.56246,-0.0729 1.18225,-0.24999 1.85937,-0.53125 0.67705,-0.28124 1.44267,-0.70312 2.29688,-1.26562 0.85412,-0.56249 1.86454,-1.32291 3.03125,-2.28125 0.27079,0.14584 0.50516,0.35417 0.70312,0.625 0.19787,0.27084 0.34892,0.48959 0.45313,0.65625 -1.37505,1.52084 -2.58859,2.7448 -3.64063,3.67187 -1.05212,0.92709 -2.03129,1.64063 -2.9375,2.14063 -0.90629,0.5 -1.78649,0.82812 -2.64062,0.98437 -0.8542,0.15625 -1.77087,0.23438 -2.75,0.23438 -1.02087,0 -2.02087,-0.15104 -3,-0.45313 -0.9792,-0.30208 -1.90107,-0.73958 -2.76563,-1.3125 -0.86461,-0.57291 -1.66148,-1.27083 -2.39062,-2.09375 -0.72919,-0.82291 -1.35419,-1.7552 -1.875,-2.79687 -0.66669,0.97917 -1.4219,1.875 -2.26563,2.6875 -0.84377,0.8125 -1.74481,1.51563 -2.70312,2.10937 -0.95835,0.59376 -1.95835,1.05209 -3,1.375 -1.04168,0.32292 -2.10418,0.48438 -3.1875,0.48438 -1.77085,0 -3.41147,-0.375 -4.92188,-1.125 -1.51042,-0.75 -2.8125,-1.78125 -3.90625,-3.09375 -1.09375,-1.3125 -1.95312,-2.87499 -2.57812,-4.6875 -0.625,-1.81249 -0.9375,-3.78124 -0.9375,-5.90625 0,-1.37498 0.17708,-2.72915 0.53125,-4.0625 0.35416,-1.33331 0.84895,-2.59894 1.48437,-3.79688 0.63542,-1.19789 1.39062,-2.30205 2.26563,-3.3125 0.87499,-1.01039 1.83853,-1.88018 2.89062,-2.60937 1.05208,-0.72914 2.17187,-1.30205 3.35938,-1.71875 1.18749,-0.41664 2.41665,-0.62497 3.6875,-0.625 2.27081,3e-5 4.30727,0.58857 6.10937,1.76562 1.80206,1.17712 3.23435,2.77607 4.29688,4.79688 0.54164,-0.79164 1.1406,-1.53123 1.79687,-2.21875 0.65623,-0.68747 1.38018,-1.30206 2.17188,-1.84375 0.4583,-0.31247 0.98434,-0.61976 1.57812,-0.92188 0.59372,-0.30205 1.19268,-0.57288 1.79688,-0.8125 0.60413,-0.23955 1.20309,-0.42705 1.79687,-0.5625 0.59372,-0.13538 1.13018,-0.20309 1.60938,-0.20312 1.29163,3e-5 2.44267,0.18753 3.45312,0.5625 1.01038,0.37503 1.901,0.88024 2.67188,1.51562 0.77079,0.63545 1.42704,1.37503 1.96875,2.21875 0.54162,0.84378 0.97912,1.7344 1.3125,2.67188 0.33329,0.93752 0.57808,1.89065 0.73437,2.85937 0.15621,0.96877 0.23433,1.89065 0.23438,2.76563 z"
         style=""
         id="path3117" />
    </g>
    <g
       style="font-size:64px;font-style:normal;font-variant:normal;font-weight:normal;font-stretch:normal;line-height:125%;letter-spacing:0px;word-spacing:0px;fill:#000000;fill-opacity:1;stroke:none;font-family:Gentium;-inkscape-font-specification:Gentium"
       id="text3046-6-27-1">
      <path
         d="m 568.59375,455.5 1.1875,-1.28125 c 1.02083,1.00001 1.99479,1.78646 2.92187,2.35937 0.92708,0.57293 1.80208,0.9948 2.625,1.26563 0.82291,0.27084 1.58854,0.4375 2.29688,0.5 0.70832,0.0625 1.36457,0.0937 1.96875,0.0937 1.29165,0 2.39582,-0.15104 3.3125,-0.45313 0.91665,-0.30207 1.67186,-0.69791 2.26562,-1.1875 0.59374,-0.48957 1.03124,-1.04686 1.3125,-1.67187 0.28124,-0.62499 0.43228,-1.27083 0.45313,-1.9375 0.0208,-0.70832 -0.14064,-1.42707 -0.48438,-2.15625 -0.34376,-0.72916 -0.89064,-1.40103 -1.64062,-2.01563 -0.75002,-0.61457 -1.72397,-1.12498 -2.92188,-1.53125 -1.19793,-0.40623 -2.65105,-0.64061 -4.35937,-0.70312 L 577.875,445.125 c 1.89582,-0.12498 3.41665,-0.38019 4.5625,-0.76563 1.14582,-0.38539 2.03123,-0.84373 2.65625,-1.375 0.62498,-0.53123 1.03644,-1.10935 1.23437,-1.73437 0.1979,-0.62498 0.29686,-1.2604 0.29688,-1.90625 -2e-5,-0.62498 -0.15106,-1.21873 -0.45313,-1.78125 -0.3021,-0.56248 -0.71876,-1.05727 -1.25,-1.48438 -0.53126,-0.42705 -1.15105,-0.76559 -1.85937,-1.01562 -0.70835,-0.24997 -1.47918,-0.37497 -2.3125,-0.375 -1.10418,3e-5 -2.09897,0.13023 -2.98438,0.39062 -0.88542,0.26045 -1.64584,0.62503 -2.28125,1.09375 -0.63542,0.46878 -1.14584,1.02607 -1.53125,1.67188 -0.38542,0.64586 -0.64063,1.35419 -0.76562,2.125 l -1.15625,0.3125 c -0.16667,-0.29165 -0.35938,-0.67185 -0.57813,-1.14063 -0.21875,-0.46872 -0.42187,-0.95831 -0.60937,-1.46875 -0.1875,-0.51039 -0.33334,-0.99476 -0.4375,-1.45312 -0.10417,-0.45831 -0.13542,-0.81247 -0.0937,-1.0625 0.52083,-0.52081 1.17708,-1.00518 1.96875,-1.45313 0.79166,-0.44788 1.67187,-0.83851 2.64062,-1.17187 0.96875,-0.3333 2.0052,-0.59893 3.10938,-0.79688 1.10415,-0.19788 2.21874,-0.29684 3.34375,-0.29687 1.06248,3e-5 2.15623,0.13024 3.28125,0.39062 1.12498,0.26045 2.15623,0.67191 3.09375,1.23438 0.93748,0.56253 1.70831,1.28649 2.3125,2.17187 0.60414,0.88545 0.90623,1.95315 0.90625,3.20313 -2e-5,1.70835 -0.42711,3.1771 -1.28125,4.40625 -0.85419,1.22918 -2.06252,2.14585 -3.625,2.75 0.97915,0.18752 1.83852,0.50522 2.57812,0.95312 0.73957,0.44794 1.35936,0.99481 1.85938,1.64063 0.49998,0.64585 0.87498,1.37501 1.125,2.1875 0.24998,0.81251 0.37498,1.67709 0.375,2.59375 -2e-5,1.12501 -0.25523,2.2448 -0.76563,3.35937 -0.51044,1.11459 -1.26564,2.1198 -2.26562,3.01563 -1.00002,0.89583 -2.22919,1.625 -3.6875,2.1875 -1.45835,0.5625 -3.13543,0.84375 -5.03125,0.84375 -0.89585,0 -1.85939,-0.10938 -2.89063,-0.32813 -1.03125,-0.21875 -2.0625,-0.59375 -3.09375,-1.125 -1.03125,-0.53124 -2.03646,-1.23958 -3.01562,-2.125 -0.97917,-0.88541 -1.86459,-1.98437 -2.65625,-3.29687 z"
         style=""
         id="path3120" />
    </g>
    <path
       transform="matrix(0.5,0,0,0.5,606.6875,423.9375)"
       style="fill:#000000;fill-opacity:1;fill-rule:nonzero;stroke:#b6b6b6;stroke-width:0;stroke-linecap:square;stroke-linejoin:miter;stroke-miterlimit:2;stroke-dashoffset:0;stroke-opacity:1"
       d="m 40,40 c 0,8.284271 -6.715729,15 -15,15 -8.284271,0 -15,-6.715729 -15,-15 0,-8.284271 6.715729,-15 15,-15 8.284271,0 15,6.715729 15,15 z"
       id="path3832-1-42-5-3" />
    <g
       style="font-size:64px;font-style:normal;font-variant:normal;font-weight:normal;font-stretch:normal;line-height:125%;letter-spacing:0px;word-spacing:0px;fill:#000000;fill-opacity:1;stroke:none;font-family:Gentium;-inkscape-font-specification:Gentium"
       id="text3046-7-3-4-3">
      <path
         d="m 656,431.4375 c 1.06248,3e-5 2.15623,0.13024 3.28125,0.39062 1.12498,0.26045 2.15623,0.67191 3.09375,1.23438 0.93748,0.56253 1.70831,1.28649 2.3125,2.17187 0.60414,0.88545 0.90622,1.95315 0.90625,3.20313 -3e-5,1.70835 -0.42711,3.1771 -1.28125,4.40625 -0.85419,1.22918 -2.06252,2.14585 -3.625,2.75 0.97914,0.18752 1.83852,0.50522 2.57812,0.95312 0.73956,0.44794 1.35935,0.99481 1.85938,1.64063 0.49997,0.64585 0.87497,1.37501 1.125,2.1875 0.24997,0.81251 0.37497,1.67709 0.375,2.59375 -3e-5,1.12501 -0.31774,2.2448 -0.95313,3.35937 -0.63544,1.11459 -1.51044,2.1198 -2.625,3.01563 -1.1146,0.89583 -2.42189,1.625 -3.92187,2.1875 -1.50002,0.5625 -3.12502,0.84375 -4.875,0.84375 -1.81251,0 -3.48959,-0.36979 -5.03125,-1.10938 -1.54168,-0.73958 -2.8698,-1.76041 -3.98438,-3.0625 -1.11458,-1.30207 -1.98437,-2.83853 -2.60937,-4.60937 -0.625,-1.77082 -0.9375,-3.68749 -0.9375,-5.75 0,-2.43748 0.39583,-4.66144 1.1875,-6.67188 0.79166,-2.01039 1.85416,-3.73435 3.1875,-5.17187 1.33333,-1.43747 2.85937,-2.55726 4.57812,-3.35938 1.71874,-0.80205 3.5052,-1.20309 5.35938,-1.20312 z m -0.53125,27.3125 c 1.12498,0 2.0729,-0.15104 2.84375,-0.45313 0.77081,-0.30207 1.39581,-0.69791 1.875,-1.1875 0.47915,-0.48957 0.82289,-1.04686 1.03125,-1.67187 0.20831,-0.62499 0.32289,-1.27083 0.34375,-1.9375 0.0208,-0.77082 -0.14065,-1.54687 -0.48438,-2.32813 -0.34377,-0.78123 -0.89064,-1.48957 -1.64062,-2.125 -0.75002,-0.6354 -1.72398,-1.15623 -2.92188,-1.5625 -1.19793,-0.40623 -2.65105,-0.64061 -4.35937,-0.70312 L 652.5,445.125 c 1.89582,-0.12498 3.41665,-0.38019 4.5625,-0.76563 1.14581,-0.38539 2.03123,-0.84373 2.65625,-1.375 0.62498,-0.53123 1.03644,-1.10935 1.23437,-1.73437 0.1979,-0.62498 0.29686,-1.2604 0.29688,-1.90625 -2e-5,-0.62498 -0.15627,-1.21873 -0.46875,-1.78125 -0.31252,-0.56248 -0.75002,-1.05727 -1.3125,-1.48438 -0.56252,-0.42705 -1.24481,-0.76559 -2.04688,-1.01562 -0.8021,-0.24997 -1.69272,-0.37497 -2.67187,-0.375 -1.29168,3e-5 -2.44793,0.29169 -3.46875,0.875 -1.02084,0.58336 -1.89064,1.40107 -2.60938,2.45312 -0.71875,1.05211 -1.27084,2.30211 -1.65625,3.75 -0.38542,1.44794 -0.57813,3.02606 -0.57812,4.73438 -10e-6,1.62501 0.23958,3.1771 0.71875,4.65625 0.47916,1.47918 1.1302,2.78126 1.95312,3.90625 0.82291,1.12501 1.78124,2.02084 2.875,2.6875 1.09374,0.66667 2.2552,1 3.48438,1 z"
         style=""
         id="path3124" />
    </g>
    <g
       style="font-size:64px;font-style:normal;font-variant:normal;font-weight:normal;font-stretch:normal;line-height:125%;letter-spacing:0px;word-spacing:0px;fill:#000000;fill-opacity:1;stroke:none;font-family:Gentium;-inkscape-font-specification:Gentium"
       id="text3046-6-27-7">
      <path
         d="m 430.1875,674.3125 c 1.24999,0 2.57811,-0.3177 3.98437,-0.95313 1.40624,-0.63541 2.90103,-1.64061 4.48438,-3.01562 l 0,-8.15625 -3.71875,0.71875 c -1.41668,0.25001 -2.64064,0.6146 -3.67188,1.09375 -1.03126,0.47918 -1.88021,1.04168 -2.54687,1.6875 -0.66668,0.64584 -1.15626,1.35939 -1.46875,2.14062 -0.31251,0.78126 -0.46876,1.59897 -0.46875,2.45313 -10e-6,0.83334 0.12499,1.51042 0.375,2.03125 0.24999,0.52084 0.55728,0.9323 0.92187,1.23437 0.36458,0.30209 0.73958,0.50522 1.125,0.60938 0.38541,0.10417 0.71354,0.15625 0.98438,0.15625 z m 17.9375,0.5625 c -1.77086,1.22917 -3.2344,2.11979 -4.39063,2.67187 -1.15627,0.55209 -2.02606,0.82813 -2.60937,0.82813 -0.68752,0 -1.26044,-0.47917 -1.71875,-1.4375 -0.45835,-0.95833 -0.70835,-2.28125 -0.75,-3.96875 -0.93752,0.9375 -1.87502,1.75 -2.8125,2.4375 -0.93752,0.6875 -1.85418,1.25 -2.75,1.6875 -0.89585,0.4375 -1.7448,0.76042 -2.54688,0.96875 -0.80209,0.20833 -1.53646,0.3125 -2.20312,0.3125 -0.75001,0 -1.52084,-0.125 -2.3125,-0.375 -0.79167,-0.25 -1.50521,-0.64583 -2.14063,-1.1875 -0.63542,-0.54167 -1.16146,-1.23958 -1.57812,-2.09375 -0.41667,-0.85416 -0.625,-1.88541 -0.625,-3.09375 0,-1.22916 0.22396,-2.40103 0.67187,-3.51563 0.44792,-1.11457 1.11458,-2.13019 2,-3.04687 0.88542,-0.91665 1.98437,-1.71353 3.29688,-2.39063 1.31249,-0.67706 2.84374,-1.19269 4.59375,-1.54687 l 6.40625,-1.28125 0,-4.34375 c -2e-5,-0.70831 -0.0833,-1.36977 -0.25,-1.98438 -0.16669,-0.61455 -0.44794,-1.1458 -0.84375,-1.59375 -0.39585,-0.44789 -0.93231,-0.79164 -1.60938,-1.03125 -0.67709,-0.23955 -1.52605,-0.34893 -2.54687,-0.32812 -0.66668,0.0209 -1.32293,0.13544 -1.96875,0.34375 -0.64584,0.20836 -1.20834,0.50003 -1.6875,0.875 -0.47918,0.37503 -0.85418,0.81773 -1.125,1.32812 -0.27084,0.51045 -0.37501,1.07815 -0.3125,1.70313 0.0208,0.18752 -0.19272,0.40106 -0.64063,0.64062 -0.44792,0.23961 -0.97917,0.45315 -1.59375,0.64063 -0.61458,0.18752 -1.21875,0.33335 -1.8125,0.4375 -0.59375,0.10419 -1.01562,0.12502 -1.26562,0.0625 l -0.4375,-1.21875 c 0.47916,-1.04164 1.20833,-2.04164 2.1875,-3 0.97916,-0.95831 2.09895,-1.80206 3.35937,-2.53125 1.26041,-0.72914 2.59374,-1.31247 4,-1.75 1.40624,-0.43747 2.76561,-0.65622 4.07813,-0.65625 2.29165,3e-5 4.05727,0.59899 5.29687,1.79687 1.23956,1.19795 1.85936,2.86982 1.85938,5.01563 l 0,17.625 c -2e-5,0.875 0.11456,1.5 0.34375,1.875 0.22914,0.375 0.53122,0.5625 0.90625,0.5625 0.29164,0 0.66664,-0.0521 1.125,-0.15625 0.45831,-0.10416 1.10414,-0.33333 1.9375,-0.6875 l 0.46875,1.40625 z"
         style=""
         id="path3127" />
    </g>
    <path
       transform="matrix(0.5,0,0,0.5,458.6875,639.9375)"
       style="fill:#000000;fill-opacity:1;fill-rule:nonzero;stroke:#b6b6b6;stroke-width:0;stroke-linecap:square;stroke-linejoin:miter;stroke-miterlimit:2;stroke-dashoffset:0;stroke-opacity:1"
       d="m 40,40 c 0,8.284271 -6.715729,15 -15,15 -8.284271,0 -15,-6.715729 -15,-15 0,-8.284271 6.715729,-15 15,-15 8.284271,0 15,6.715729 15,15 z"
       id="path3832-1-42-5-9" />
    <g
       style="font-size:64px;font-style:normal;font-variant:normal;font-weight:normal;font-stretch:normal;line-height:125%;letter-spacing:0px;word-spacing:0px;fill:#000000;fill-opacity:1;stroke:none;font-family:Gentium;-inkscape-font-specification:Gentium"
       id="text3046-7-3-4-31">
      <path
         d="m 507.90625,675.125 c 0.64582,0 1.23436,-0.0104 1.76562,-0.0312 0.53124,-0.0208 1.02082,-0.0729 1.46875,-0.15625 0.4479,-0.0833 0.86978,-0.19271 1.26563,-0.32813 0.39581,-0.13541 0.78123,-0.3177 1.15625,-0.54687 l 0,-22.21875 c -0.79169,-0.54164 -1.65106,-0.93747 -2.57813,-1.1875 -0.9271,-0.24997 -1.95314,-0.37497 -3.07812,-0.375 -1.47918,3e-5 -2.80731,0.28128 -3.98438,0.84375 -1.17709,0.56253 -2.17709,1.37502 -3,2.4375 -0.82292,1.06252 -1.45313,2.34898 -1.89062,3.85937 -0.43751,1.51044 -0.65626,3.21356 -0.65625,5.10938 -10e-6,1.75001 0.2552,3.38543 0.76562,4.90625 0.51041,1.52084 1.20312,2.85417 2.07813,4 0.87499,1.14584 1.8854,2.04688 3.03125,2.70312 1.14582,0.65626 2.36457,0.98438 3.65625,0.98438 z m 24.5625,-4.09375 c -0.0625,0.66667 -0.14587,1.33334 -0.25,2 -0.10421,0.66667 -0.20317,1.29167 -0.29688,1.875 -0.0938,0.58334 -0.18754,1.09375 -0.28125,1.53125 -0.0938,0.4375 -0.17191,0.77083 -0.23437,1 l -16.875,0 c -0.91669,0.0208 -1.69273,0.0729 -2.32813,0.15625 -0.63543,0.0833 -1.22397,0.17187 -1.76562,0.26562 -0.54169,0.0937 -1.09377,0.17709 -1.65625,0.25 -0.56252,0.0729 -1.21877,0.10938 -1.96875,0.10938 -2.06251,0 -3.90626,-0.41667 -5.53125,-1.25 -1.62501,-0.83333 -3.00001,-1.94271 -4.125,-3.32813 -1.125,-1.38541 -1.98438,-2.97915 -2.57813,-4.78125 -0.59375,-1.80207 -0.89062,-3.68227 -0.89062,-5.64062 0,-2.10415 0.38541,-4.09894 1.15625,-5.98438 0.77083,-1.88539 1.8177,-3.54164 3.14062,-4.96875 1.32291,-1.42705 2.875,-2.55726 4.65625,-3.39062 1.78124,-0.8333 3.68228,-1.24997 5.70313,-1.25 0.68748,3e-5 1.27602,0.0365 1.76562,0.10937 0.48957,0.0729 0.96353,0.15628 1.42188,0.25 0.45831,0.0938 0.93227,0.17712 1.42187,0.25 0.48957,0.0729 1.06769,0.11983 1.73438,0.14063 l 15.25,0 0.78125,0.5625 c -0.0417,0.39586 -0.0938,0.88544 -0.15625,1.46875 -0.0625,0.58336 -0.14066,1.17711 -0.23438,1.78125 -0.0938,0.60419 -0.19274,1.1719 -0.29687,1.70312 -0.10421,0.53128 -0.20837,0.94274 -0.3125,1.23438 l -1.40625,0 c -0.0625,-1.43748 -0.26045,-2.41664 -0.59375,-2.9375 -0.33337,-0.52081 -0.83337,-0.78122 -1.5,-0.78125 l -7.96875,0 0,8.9375 9.125,0 0.75,0.65625 c -0.1667,0.22918 -0.34899,0.49481 -0.54688,0.79687 -0.19795,0.3021 -0.40628,0.60419 -0.625,0.90625 -0.21878,0.3021 -0.43232,0.58335 -0.64062,0.84375 -0.20837,0.26044 -0.39587,0.45314 -0.5625,0.57813 -0.25003,-0.22915 -0.51045,-0.42186 -0.78125,-0.57813 -0.27087,-0.15623 -0.59378,-0.28644 -0.96875,-0.39062 -0.37503,-0.10415 -0.81774,-0.18228 -1.32813,-0.23438 -0.51044,-0.0521 -1.13023,-0.0781 -1.85937,-0.0781 l -2.5625,0 0,10.28125 c -3e-5,0.22917 0.0208,0.4375 0.0625,0.625 0.0416,0.1875 0.19789,0.34375 0.46875,0.46875 0.27081,0.125 0.68747,0.22396 1.25,0.29687 0.56247,0.0729 1.37497,0.10938 2.4375,0.10938 l 3,0 c 0.79163,0 1.46351,-0.0365 2.01562,-0.10938 0.55205,-0.0729 1.03643,-0.24999 1.45313,-0.53125 0.41663,-0.28124 0.80204,-0.68228 1.15625,-1.20312 0.35413,-0.52083 0.71871,-1.23958 1.09375,-2.15625 l 1.28125,0.40625 z"
         style=""
         id="path3131" />
    </g>
    <g
       style="font-size:64px;font-style:normal;font-variant:normal;font-weight:normal;font-stretch:normal;line-height:125%;letter-spacing:0px;word-spacing:0px;fill:#000000;fill-opacity:1;stroke:none;font-family:Gentium;-inkscape-font-specification:Gentium"
       id="text3046-7-3-4-3-0">
      <path
         d="m 658.4375,535.5 c -0.62502,3e-5 -1.27085,0.12503 -1.9375,0.375 -0.66668,0.25003 -1.34897,0.59898 -2.04688,1.04687 -0.69793,0.44795 -1.42188,0.96878 -2.17187,1.5625 -0.75001,0.59378 -1.52084,1.2344 -2.3125,1.92188 l 0,7.25 3.71875,-0.75 c 1.41665,-0.24999 2.64061,-0.61457 3.67187,-1.09375 1.03124,-0.47915 1.88019,-1.04165 2.54688,-1.6875 0.66665,-0.64582 1.15623,-1.35936 1.46875,-2.14063 0.31248,-0.78122 0.46873,-1.59893 0.46875,-2.45312 -2e-5,-0.83331 -0.12502,-1.51039 -0.375,-2.03125 -0.25002,-0.52081 -0.55731,-0.92706 -0.92188,-1.21875 -0.3646,-0.29164 -0.7396,-0.49477 -1.125,-0.60938 -0.38543,-0.11455 -0.71356,-0.17184 -0.98437,-0.17187 z m -17.53125,-1.5625 c 1.33333,-0.29164 2.61979,-0.6406 3.85937,-1.04688 1.23958,-0.40622 2.45312,-0.89059 3.64063,-1.45312 l 1.09375,1.09375 c -10e-6,3e-5 0.005,0.18753 0.0156,0.5625 0.0104,0.37503 0.0312,0.83336 0.0625,1.375 0.0312,0.54169 0.0677,1.13023 0.10938,1.76562 0.0417,0.63545 0.0833,1.21357 0.125,1.73438 0.93749,-0.99998 1.8854,-1.90102 2.84375,-2.70313 0.95832,-0.80205 1.89061,-1.48434 2.79687,-2.04687 0.90624,-0.56247 1.76561,-0.99997 2.57813,-1.3125 0.81248,-0.31247 1.56248,-0.46872 2.25,-0.46875 0.74998,3e-5 1.52081,0.12503 2.3125,0.375 0.79164,0.25003 1.50518,0.64586 2.14062,1.1875 0.6354,0.54169 1.16144,1.23961 1.57813,2.09375 0.41664,0.85419 0.62497,1.88544 0.625,3.09375 -3e-5,1.22919 -0.22399,2.40106 -0.67188,3.51562 -0.44794,1.11461 -1.1146,2.13023 -2,3.04688 -0.88544,0.91668 -1.98439,1.71356 -3.29687,2.39062 -1.31252,0.6771 -2.84377,1.19273 -4.59375,1.54688 l -6.40625,1.3125 0,4.3125 c -10e-6,0.70834 0.0833,1.3698 0.25,1.98437 0.16666,0.61459 0.44791,1.14584 0.84375,1.59375 0.39582,0.44792 0.93228,0.79688 1.60937,1.04688 0.67707,0.25 1.52603,0.35417 2.54688,0.3125 0.66665,-0.0208 1.32811,-0.10416 1.98437,-0.25 0.65624,-0.14583 1.24999,-0.375 1.78125,-0.6875 0.53123,-0.3125 0.96873,-0.71354 1.3125,-1.20313 0.34373,-0.48957 0.53644,-1.08853 0.57813,-1.79687 0.0208,-0.18749 0.26039,-0.40104 0.71875,-0.64063 0.45831,-0.23957 0.98435,-0.45311 1.57812,-0.64062 0.59373,-0.18749 1.18227,-0.33333 1.76563,-0.4375 0.58331,-0.10416 0.99997,-0.12499 1.25,-0.0625 l 0.4375,1.21875 c -0.50003,1.16667 -1.25523,2.21875 -2.26563,3.15625 -1.01044,0.9375 -2.15627,1.73959 -3.4375,2.40625 -1.28127,0.66667 -2.65626,1.17708 -4.125,1.53125 -1.46876,0.35417 -2.92188,0.53125 -4.35937,0.53125 -2.29168,0 -4.0573,-0.59896 -5.29688,-1.79688 -1.23959,-1.19791 -1.85938,-2.86978 -1.85937,-5.01562 l 0,-17.28125 c -10e-6,-0.64581 -0.099,-1.16664 -0.29688,-1.5625 -0.19792,-0.39581 -0.48438,-0.7031 -0.85937,-0.92188 -0.375,-0.21872 -0.83334,-0.36976 -1.375,-0.45312 -0.54167,-0.0833 -1.15625,-0.13539 -1.84375,-0.15625 l 0,-1.25 z"
         style=""
         id="path3134" />
    </g>
    <g
       style="font-size:64px;font-style:normal;font-variant:normal;font-weight:normal;font-stretch:normal;line-height:125%;letter-spacing:0px;word-spacing:0px;fill:#000000;fill-opacity:1;stroke:none;font-family:Gentium;-inkscape-font-specification:Gentium"
       id="text3046-7-3-4-3-0-0">
      <path
         d="m 410.28125,544.6875 c -0.4792,3e-5 -1.03649,0.1094 -1.67188,0.32812 -0.63544,0.21878 -1.26565,0.64066 -1.89062,1.26563 -0.62503,0.62502 -1.21357,1.50002 -1.76563,2.625 -0.5521,1.12502 -0.96356,2.59377 -1.23437,4.40625 l 10.875,0 c 0.43746,2e-5 0.74476,-0.0781 0.92187,-0.23438 0.17705,-0.15623 0.26559,-0.4531 0.26563,-0.89062 -4e-5,-0.99998 -0.1042,-1.9531 -0.3125,-2.85938 -0.20837,-0.90622 -0.53129,-1.7031 -0.96875,-2.39062 -0.43753,-0.68747 -1.00524,-1.23435 -1.70313,-1.64063 -0.69794,-0.40622 -1.53649,-0.60934 -2.51562,-0.60937 z m -11.1875,19.15625 c -0.14585,-0.60416 -0.25523,-1.21874 -0.32813,-1.84375 -0.0729,-0.62499 -0.10939,-1.28124 -0.10937,-1.96875 l 0,-0.21875 0,-0.0937 0,-3.4375 c -0.68752,0.0417 -1.3021,0.0938 -1.84375,0.15625 -0.54168,0.0625 -0.93752,0.13543 -1.1875,0.21875 -3.12501,0.77085 -5.38543,1.8073 -6.78125,3.10937 -1.39584,1.3021 -2.09376,2.80731 -2.09375,4.51563 -10e-6,0.83334 0.1302,1.51042 0.39062,2.03125 0.26041,0.52084 0.5677,0.9323 0.92188,1.23437 0.35416,0.30209 0.72916,0.50522 1.125,0.60938 0.39582,0.10417 0.72916,0.15625 1,0.15625 0.56249,0 1.1979,-0.0937 1.90625,-0.28125 0.70832,-0.1875 1.45311,-0.46354 2.23437,-0.82813 0.78124,-0.36457 1.57811,-0.82811 2.39063,-1.39062 0.81248,-0.56249 1.60415,-1.21874 2.375,-1.96875 z m 21.875,-9.8125 c -0.41671,0.41668 -0.93754,0.80731 -1.5625,1.17187 -0.62504,0.3646 -1.27087,0.68231 -1.9375,0.95313 l -14.03125,0 c -0.0417,0.35418 -0.0625,0.71876 -0.0625,1.09375 -2e-5,0.35418 -2e-5,0.72918 0,1.125 -2e-5,1.20835 0.16143,2.40105 0.48437,3.57812 0.3229,1.1771 0.79685,2.23439 1.42188,3.17188 0.62497,0.93751 1.3906,1.69271 2.29687,2.26562 0.90623,0.57293 1.94268,0.85938 3.10938,0.85938 0.6458,0 1.26559,-0.0365 1.85937,-0.10938 0.59372,-0.0729 1.22914,-0.24999 1.90625,-0.53125 0.67705,-0.28124 1.42184,-0.70312 2.23438,-1.26562 0.81246,-0.56249 1.77079,-1.32291 2.875,-2.28125 0.27079,0.14584 0.50517,0.35417 0.70312,0.625 0.19788,0.27084 0.34892,0.48959 0.45313,0.65625 -1.25004,1.5 -2.39587,2.70834 -3.4375,3.625 -1.0417,0.91667 -2.03649,1.625 -2.98438,2.125 -0.94795,0.5 -1.87503,0.83854 -2.78125,1.01562 -0.90628,0.17709 -1.84898,0.26563 -2.82812,0.26563 -0.9167,0 -1.81774,-0.14583 -2.70313,-0.4375 -0.88544,-0.29167 -1.71877,-0.71875 -2.5,-1.28125 -0.78127,-0.5625 -1.4896,-1.24479 -2.125,-2.04688 -0.63543,-0.80207 -1.17189,-1.72395 -1.60937,-2.76562 -0.89585,1.08334 -1.86981,2.03125 -2.92188,2.84375 -1.05209,0.8125 -2.09897,1.49479 -3.14062,2.04687 -1.04168,0.55209 -2.03126,0.96355 -2.96875,1.23438 -0.93751,0.27083 -1.72918,0.40625 -2.375,0.40625 -0.75001,0 -1.52084,-0.125 -2.3125,-0.375 -0.79167,-0.25 -1.50521,-0.64583 -2.14063,-1.1875 -0.63542,-0.54167 -1.16146,-1.23958 -1.57812,-2.09375 -0.41667,-0.85416 -0.625,-1.88541 -0.625,-3.09375 0,-1.22916 0.24479,-2.41145 0.73437,-3.54688 0.48958,-1.1354 1.22396,-2.19269 2.20313,-3.17187 0.97916,-0.97915 2.21874,-1.86978 3.71875,-2.67188 1.49999,-0.80206 3.27082,-1.49477 5.3125,-2.07812 0.68748,-0.18748 1.46353,-0.33852 2.32812,-0.45313 0.86457,-0.11456 1.75519,-0.2031 2.67188,-0.26562 l 0,-2.6875 c -2e-5,-0.81248 -0.0625,-1.59373 -0.1875,-2.34375 -0.12502,-0.74998 -0.3646,-1.40623 -0.71875,-1.96875 -0.35418,-0.56247 -0.84898,-1.0156 -1.48438,-1.35938 -0.63543,-0.34372 -1.46355,-0.51559 -2.48437,-0.51562 -0.66668,3e-5 -1.37501,0.15107 -2.125,0.45312 -0.75001,0.30211 -1.41668,0.71878 -2,1.25 -0.58334,0.53128 -1.01563,1.14586 -1.29688,1.84375 -0.28125,0.69794 -0.26563,1.43232 0.0469,2.20313 0.0625,0.18752 -0.13022,0.39585 -0.57813,0.625 -0.44792,0.22919 -0.97917,0.43752 -1.59375,0.625 -0.61458,0.18752 -1.22917,0.32814 -1.84375,0.42187 -0.61458,0.0938 -1.04687,0.1094 -1.29687,0.0469 l -0.4375,-1.125 c 0.10416,-0.81248 0.40625,-1.61456 0.90625,-2.40625 0.5,-0.79164 1.11979,-1.53643 1.85937,-2.23438 0.73958,-0.69789 1.56771,-1.34372 2.48438,-1.9375 0.91666,-0.59372 1.84895,-1.10413 2.79687,-1.53125 0.94791,-0.42705 1.86978,-0.76038 2.76563,-1 0.89582,-0.23955 1.70832,-0.35934 2.4375,-0.35937 1.83331,3e-5 3.28644,0.37503 4.35937,1.125 1.0729,0.75003 1.84894,1.87503 2.32813,3.375 0.66664,-0.83331 1.37498,-1.54164 2.125,-2.125 0.74997,-0.58331 1.50518,-1.04685 2.26562,-1.39063 0.76039,-0.34372 1.49998,-0.59372 2.21875,-0.75 0.71872,-0.15622 1.38018,-0.23434 1.98438,-0.23437 1.2708,3e-5 2.3958,0.18232 3.375,0.54687 0.97913,0.36462 1.82809,0.8542 2.54687,1.46875 0.71872,0.61462 1.32809,1.33857 1.82813,2.17188 0.49996,0.83336 0.901,1.71357 1.20312,2.64062 0.30205,0.92711 0.51559,1.88544 0.64063,2.875 0.12496,0.98961 0.18746,1.95315 0.1875,2.89063 z"
         style=""
         id="path3137" />
    </g>
    <g
       style="font-size:64px;font-style:normal;font-variant:normal;font-weight:normal;font-stretch:normal;line-height:125%;letter-spacing:0px;word-spacing:0px;fill:#000000;fill-opacity:1;stroke:none;display:inline;font-family:Gentium;-inkscape-font-specification:Gentium"
       id="text3046-7-3-4-3-0-0-6-3">
      <path
         d="m 807.09375,88.21875 c -0.0417,2.8e-5 -0.28649,0.05732 -0.73438,0.171875 -0.44794,0.114611 -1.00523,0.276069 -1.67187,0.484375 -0.66669,0.20836 -1.29169,0.437527 -1.875,0.6875 -0.58336,0.250026 -1.03127,0.515651 -1.34375,0.796875 -0.31252,0.281275 -0.33336,0.5469 -0.0625,0.796875 0.91664,0.812524 1.68748,1.656273 2.3125,2.53125 0.62497,0.875021 1.12497,1.78127 1.5,2.71875 0.37497,0.937519 0.64581,1.901059 0.8125,2.890625 0.16664,0.989595 0.24997,2.015635 0.25,3.078125 -3e-5,0.97918 -0.12503,2.01564 -0.375,3.10938 -0.25003,1.09375 -0.61982,2.17709 -1.10938,3.25 -0.4896,1.07292 -1.09898,2.10417 -1.82812,3.09375 -0.72919,0.98958 -1.57815,1.85416 -2.54688,2.59375 -0.96877,0.73958 -2.05731,1.33333 -3.26562,1.78125 -1.20835,0.44791 -2.52085,0.67187 -3.9375,0.67187 -2.14585,0 -3.98959,-0.36979 -5.53125,-1.10937 -1.54167,-0.73959 -2.8073,-1.72396 -3.79688,-2.95313 -0.98958,-1.22916 -1.71875,-2.65624 -2.1875,-4.28125 C 781.23437,106.90626 781,105.21876 781,103.46875 c 0,-2.33332 0.38541,-4.536441 1.15625,-6.609375 0.77083,-2.072896 2.11458,-3.973935 4.03125,-5.703125 0.29166,-0.270808 0.28645,-0.54685 -0.0156,-0.828125 -0.30209,-0.281224 -0.74479,-0.541641 -1.32812,-0.78125 -0.58334,-0.239557 -1.21355,-0.463515 -1.89063,-0.671875 -0.67708,-0.208306 -1.23958,-0.369764 -1.6875,-0.484375 -0.44791,-0.114556 -0.69271,-0.171847 -0.73437,-0.171875 l 0,-1.34375 10.84375,0 0.5625,2.875 c -1.00001,0.750025 -1.88022,1.552108 -2.64063,2.40625 -0.76042,0.85419 -1.40105,1.791689 -1.92187,2.8125 -0.52084,1.020853 -0.91667,2.15106 -1.1875,3.390625 -0.27084,1.2396 -0.40626,2.640635 -0.40625,4.203125 -10e-6,1.39585 0.23958,2.7448 0.71875,4.04688 0.47916,1.30209 1.1302,2.45834 1.95312,3.46875 0.82291,1.01042 1.77604,1.82292 2.85938,2.4375 1.08332,0.61458 2.22915,0.92187 3.4375,0.92187 1.20832,0 2.27081,-0.29687 3.1875,-0.89062 0.91665,-0.59375 1.68227,-1.34896 2.29687,-2.26563 0.61457,-0.91666 1.0729,-1.93228 1.375,-3.04687 0.30207,-1.11458 0.45311,-2.20312 0.45313,-3.26563 -2e-5,-1.56249 -0.14586,-3.0729 -0.4375,-4.53125 -0.29169,-1.458315 -0.70836,-2.807272 -1.25,-4.046875 -0.54169,-1.239562 -1.20315,-2.338519 -1.98438,-3.296875 -0.78126,-0.958309 -1.67189,-1.739558 -2.67187,-2.34375 l 0.625,-2.875 10.75,0 0,1.34375 z"
         style=""
         id="path3140" />
    </g>
    <g
       style="font-size:64px;font-style:normal;font-variant:normal;font-weight:normal;font-stretch:normal;line-height:125%;letter-spacing:0px;word-spacing:0px;fill:#000000;fill-opacity:1;stroke:none;display:inline;font-family:Gentium;-inkscape-font-specification:Gentium"
       id="text3046-6-9">
      <path
         d="m 177.375,101.4375 0,-1.34375 c 1.41666,-0.291665 2.5,-0.609373 3.25,-0.953125 0.74999,-0.343747 1.12499,-0.661455 1.125,-0.953125 l 0,-22.5625 c -1e-5,-0.249974 -0.34896,-0.557265 -1.04688,-0.921875 -0.69792,-0.364556 -1.80729,-0.692681 -3.32812,-0.984375 l 0,-1.34375 13.4375,0 0,1.34375 c -1.41668,0.291694 -2.50001,0.609402 -3.25,0.953125 -0.75001,0.343776 -1.12501,0.661484 -1.125,0.953125 l 0,22.5625 c -1e-5,0.250003 0.34895,0.557294 1.04687,0.921875 0.69791,0.364585 1.80728,0.69271 3.32813,0.984375 l 0,1.34375 z"
         style=""
         id="path3143" />
    </g>
    <path
       transform="matrix(0.5,0,0,0.5,204.6875,63.937498)"
       style="fill:#000000;fill-opacity:1;fill-rule:nonzero;stroke:#b6b6b6;stroke-width:0;stroke-linecap:square;stroke-linejoin:miter;stroke-miterlimit:2;stroke-dashoffset:0;stroke-opacity:1;display:inline"
       d="m 40,40 c 0,8.284271 -6.715729,15 -15,15 -8.284271,0 -15,-6.715729 -15,-15 0,-8.284271 6.715729,-15 15,-15 8.284271,0 15,6.715729 15,15 z"
       id="path3832-1-42-4" />
    <g
       style="font-size:64px;font-style:normal;font-variant:normal;font-weight:normal;font-stretch:normal;line-height:125%;letter-spacing:0px;word-spacing:0px;fill:#000000;fill-opacity:1;stroke:none;display:inline;font-family:Gentium;-inkscape-font-specification:Gentium"
       id="text3046-7-3-46">
      <path
         d="m 246.34375,101.4375 0,-1.34375 c 1.60416,-0.416665 2.73436,-0.781248 3.39062,-1.09375 0.65624,-0.312497 0.98437,-0.58333 0.98438,-0.8125 l 0,-9 c -0.64585,-1.249987 -1.37501,-2.536444 -2.1875,-3.859375 -0.81251,-1.322899 -1.64063,-2.609356 -2.48438,-3.859375 -0.84375,-1.249979 -1.66146,-2.411436 -2.45312,-3.484375 -0.79167,-1.072892 -1.48959,-1.98435 -2.09375,-2.734375 -0.16667,-0.16664 -0.32813,-0.328098 -0.48438,-0.484375 -0.15625,-0.156223 -0.35937,-0.29164 -0.60937,-0.40625 -0.25,-0.114556 -0.57292,-0.208306 -0.96875,-0.28125 -0.39584,-0.07289 -0.89583,-0.109348 -1.5,-0.109375 l -0.125,-1.34375 c 1,-0.124971 2.02083,-0.239554 3.0625,-0.34375 1.04166,-0.104137 1.90624,-0.156221 2.59375,-0.15625 0.37499,2.9e-5 0.73958,0.07815 1.09375,0.234375 0.35416,0.156279 0.66666,0.380237 0.9375,0.671875 0.64582,0.750028 1.33853,1.61461 2.07812,2.59375 0.73958,0.979191 1.48958,2.020857 2.25,3.125 0.76041,1.104188 1.49999,2.239604 2.21875,3.40625 0.71874,1.166685 1.3802,2.312517 1.98438,3.4375 L 260.5,75.25 c 0.24998,-0.41664 0.0885,-0.739556 -0.48438,-0.96875 -0.57293,-0.229139 -1.52606,-0.416639 -2.85937,-0.5625 l 0,-1.34375 10.65625,0 0,1.34375 c -1.1667,0.187528 -2.02086,0.390652 -2.5625,0.609375 -0.54169,0.218777 -0.92711,0.526068 -1.15625,0.921875 l -8.6875,13.875 0,9.0625 c -2e-5,0.208336 0.33331,0.479169 1,0.8125 0.66665,0.333335 1.80206,0.697918 3.40625,1.09375 l 0,1.34375 z"
         style=""
         id="path3147" />
    </g>
    <g
       style="font-size:64px;font-style:normal;font-variant:normal;font-weight:normal;font-stretch:normal;line-height:125%;letter-spacing:0px;word-spacing:0px;fill:#000000;fill-opacity:1;stroke:none;display:inline;font-family:Gentium;-inkscape-font-specification:Gentium"
       id="text3046-7-3-4-3-0-0-6">
      <path
         d="m 580.5625,339.625 c 2.39582,0 4.24998,-0.80729 5.5625,-2.42188 1.31248,-1.61457 2.09373,-4.00519 2.34375,-7.17187 l -12.5,0 c -0.64584,10e-6 -1.15105,0.25001 -1.51563,0.75 -0.36459,0.50001 -0.54688,1.16668 -0.54687,2 -10e-6,0.97917 0.19791,1.88542 0.59375,2.71875 0.39583,0.83334 0.91145,1.5573 1.54687,2.17187 0.63541,0.61459 1.34895,1.09376 2.14063,1.4375 0.79165,0.34376 1.58332,0.51563 2.375,0.51563 z M 593.25,326.78125 c -3e-5,2.45835 -0.41148,4.7448 -1.23438,6.85937 -0.82294,2.11459 -1.95314,3.94272 -3.39062,5.48438 -1.18752,1.29167 -2.50523,2.23958 -3.95313,2.84375 -1.44793,0.60417 -3.10938,0.90625 -4.98437,0.90625 -1.50001,0 -2.90626,-0.24479 -4.21875,-0.73438 -1.31251,-0.48958 -2.45834,-1.16666 -3.4375,-2.03125 -0.97917,-0.86458 -1.75,-1.88541 -2.3125,-3.0625 -0.5625,-1.17707 -0.84375,-2.45311 -0.84375,-3.82812 0,-0.83332 0.099,-1.59374 0.29687,-2.28125 0.19792,-0.68749 0.47396,-1.27082 0.82813,-1.75 0.60416,-0.31249 1.27083,-0.6354 2,-0.96875 0.72916,-0.33332 1.45833,-0.64582 2.1875,-0.9375 l 14.34375,0 c -0.0417,-1.70832 -0.31773,-3.24998 -0.82813,-4.625 -0.51043,-1.37498 -1.18751,-2.54685 -2.03125,-3.51563 -0.84376,-0.96872 -1.83335,-1.7083 -2.96875,-2.21875 -1.13543,-0.51039 -2.33855,-0.76559 -3.60937,-0.76562 -0.56251,3e-5 -1.13543,0.0417 -1.71875,0.125 -0.58334,0.0834 -1.21876,0.25003 -1.90625,0.5 -0.68751,0.25002 -1.44792,0.6094 -2.28125,1.07812 -0.83334,0.46878 -1.78125,1.08857 -2.84375,1.85938 -0.27084,-0.12498 -0.51042,-0.33852 -0.71875,-0.64063 -0.20834,-0.30206 -0.375,-0.53643 -0.5,-0.70312 1.27083,-1.33331 2.4427,-2.42185 3.51562,-3.26563 1.07291,-0.84372 2.09375,-1.49997 3.0625,-1.96875 0.96875,-0.46872 1.91145,-0.78642 2.82813,-0.95312 0.91665,-0.16664 1.85415,-0.24997 2.8125,-0.25 1.52082,3e-5 2.99477,0.33857 4.42187,1.01562 1.42707,0.67712 2.6979,1.65107 3.8125,2.92188 1.11456,1.27086 2.00519,2.82815 2.67188,4.67187 0.66664,1.84377 0.99997,3.9219 1,6.23438 z"
         style=""
         id="path3150" />
    </g>
    <g
       style="font-size:64px;font-style:normal;font-variant:normal;font-weight:normal;font-stretch:normal;line-height:125%;letter-spacing:0px;word-spacing:0px;fill:#000000;fill-opacity:1;stroke:none;display:inline;font-family:Gentium;-inkscape-font-specification:Gentium"
       id="text3046-6-27-11">
      <path
         d="m 861.8125,460.09375 c 0.625,-0.14583 1.13541,-0.28125 1.53125,-0.40625 0.39583,-0.125 0.71875,-0.26562 0.96875,-0.42188 0.25,-0.15624 0.4427,-0.33333 0.57812,-0.53125 0.13542,-0.19791 0.25521,-0.45312 0.35938,-0.76562 l 8.84375,-23.75 c 0.18749,-0.45831 0.45832,-0.84893 0.8125,-1.17188 0.35415,-0.32288 0.73957,-0.59372 1.15625,-0.8125 0.41665,-0.21872 0.82811,-0.39059 1.23437,-0.51562 0.40624,-0.12497 0.74478,-0.21872 1.01563,-0.28125 l 10.3125,26.53125 c 0.18747,0.58334 0.55206,1.02604 1.09375,1.32812 0.54164,0.30209 1.3333,0.56771 2.375,0.79688 l 0,1.34375 -12.0625,0 0,-1.34375 c 0.81248,-0.10417 1.47394,-0.20833 1.98437,-0.3125 0.5104,-0.10416 0.90623,-0.23437 1.1875,-0.39063 0.28123,-0.15624 0.44269,-0.34895 0.48438,-0.57812 0.0416,-0.22916 -2e-5,-0.51041 -0.125,-0.84375 l -7.6875,-20.03125 -7.21875,20.03125 c -0.10417,0.3125 -0.14063,0.57813 -0.10938,0.79687 0.0312,0.21876 0.17187,0.40626 0.42188,0.5625 0.24999,0.15626 0.60937,0.29167 1.07812,0.40625 0.46875,0.11459 1.08854,0.23438 1.85938,0.35938 l 0,1.34375 -10.09375,0 0,-1.34375 z"
         style=""
         id="path3064" />
    </g>
    <path
       transform="matrix(0.5,0,0,0.5,900.6875,423.9375)"
       style="fill:#000000;fill-opacity:1;fill-rule:nonzero;stroke:#b6b6b6;stroke-width:0;stroke-linecap:square;stroke-linejoin:miter;stroke-miterlimit:2;stroke-dashoffset:0;stroke-opacity:1;display:inline"
       d="m 40,40 c 0,8.284271 -6.715729,15 -15,15 -8.284271,0 -15,-6.715729 -15,-15 0,-8.284271 6.715729,-15 15,-15 8.284271,0 15,6.715729 15,15 z"
       id="path3832-1-42-5-8" />
    <g
       style="font-size:64px;font-style:normal;font-variant:normal;font-weight:normal;font-stretch:normal;line-height:125%;letter-spacing:0px;word-spacing:0px;fill:#000000;fill-opacity:1;stroke:none;display:inline;font-family:Gentium;-inkscape-font-specification:Gentium"
       id="text3046-7-3-4-7">
      <path
         d="m 959.59375,446.28125 c -3e-5,2.22918 -0.36461,4.32293 -1.09375,6.28125 -0.72919,1.95834 -1.71877,3.66667 -2.96875,5.125 -1.25002,1.45834 -2.72398,2.60417 -4.42188,3.4375 -1.69793,0.83333 -3.51563,1.25 -5.45312,1.25 -1.47918,0 -2.85418,-0.22917 -4.125,-0.6875 -1.27084,-0.45833 -2.3698,-1.09896 -3.29688,-1.92188 -0.92708,-0.82291 -1.65625,-1.80728 -2.1875,-2.95312 -0.53125,-1.14583 -0.79687,-2.39583 -0.79687,-3.75 0,-0.66666 0.099,-1.29687 0.29687,-1.89063 0.19792,-0.59373 0.51563,-1.11978 0.95313,-1.57812 0.79166,-0.24999 1.63541,-0.51561 2.53125,-0.79688 0.89583,-0.28123 1.73958,-0.50519 2.53125,-0.67187 l 0.65625,1.46875 c -0.29168,0.27084 -0.54168,0.53126 -0.75,0.78125 -0.20834,0.25001 -0.38022,0.51564 -0.51563,0.79687 -0.13542,0.28126 -0.23438,0.58856 -0.29687,0.92188 -0.0625,0.33334 -0.0938,0.71876 -0.0937,1.15625 -10e-6,0.72917 0.17708,1.44272 0.53125,2.14062 0.35416,0.69793 0.82812,1.32293 1.42187,1.875 0.59375,0.55209 1.27604,1.00001 2.04688,1.34375 0.77082,0.34376 1.56249,0.51563 2.375,0.51563 1.16665,0 2.23957,-0.25521 3.21875,-0.76563 0.97915,-0.51041 1.81769,-1.26562 2.51562,-2.26562 0.6979,-0.99999 1.24478,-2.23958 1.64063,-3.71875 0.39581,-1.47916 0.59373,-3.1979 0.59375,-5.15625 -2e-5,-1.77082 -0.25523,-3.36977 -0.76563,-4.79688 -0.51043,-1.42706 -1.20314,-2.6406 -2.07812,-3.64062 -0.87502,-0.99998 -1.88023,-1.77081 -3.01563,-2.3125 -1.13543,-0.54164 -2.32813,-0.81247 -3.57812,-0.8125 -0.60418,3e-5 -1.19793,0.0417 -1.78125,0.125 -0.58334,0.0834 -1.21355,0.25003 -1.89063,0.5 -0.67709,0.25002 -1.42709,0.6094 -2.25,1.07812 -0.82292,0.46878 -1.76562,1.08857 -2.82812,1.85938 -0.27084,-0.12498 -0.51563,-0.33852 -0.73438,-0.64063 -0.21875,-0.30206 -0.38021,-0.53643 -0.48437,-0.70312 1.27083,-1.33331 2.4427,-2.42185 3.51562,-3.26563 1.07291,-0.84372 2.09375,-1.49997 3.0625,-1.96875 0.96875,-0.46872 1.91145,-0.78642 2.82813,-0.95312 0.91665,-0.16664 1.85415,-0.24997 2.8125,-0.25 1.52082,3e-5 2.99477,0.33857 4.42187,1.01562 1.42707,0.67712 2.69269,1.65107 3.79688,2.92188 1.10414,1.27086 1.98956,2.82815 2.65625,4.67187 0.66664,1.84377 0.99997,3.9219 1,6.23438 z"
         style=""
         id="path3067" />
    </g>
    <g
       style="font-size:64px;font-style:normal;font-variant:normal;font-weight:normal;font-stretch:normal;line-height:125%;letter-spacing:0px;word-spacing:0px;fill:#000000;fill-opacity:1;stroke:none;display:inline;font-family:Gentium;-inkscape-font-specification:Gentium"
       id="text3046-6-27-86">
      <path
         d="m 883.21875,670.9375 0,-14.3125 c -0.66669,-1.18748 -1.47919,-2.10935 -2.4375,-2.76563 -0.95835,-0.65622 -2.1771,-0.98434 -3.65625,-0.98437 -1.33335,3e-5 -2.53647,0.24482 -3.60938,0.73437 -1.07292,0.48961 -1.98959,1.22399 -2.75,2.20313 -0.76042,0.97919 -1.34896,2.19794 -1.76562,3.65625 -0.41667,1.45835 -0.62501,3.16668 -0.625,5.125 -10e-6,1.77085 0.23958,3.38022 0.71875,4.82812 0.47916,1.44793 1.09374,2.6823 1.84375,3.70313 0.74999,1.02084 1.57811,1.8073 2.48437,2.35937 0.90624,0.55209 1.79687,0.82813 2.67188,0.82813 0.99998,0 2.04165,-0.39583 3.125,-1.1875 1.08331,-0.79166 2.41665,-2.02083 4,-3.6875 z m 9.5,5.875 c -1.81253,1.22917 -3.34378,2.13021 -4.59375,2.70312 -1.25003,0.57292 -2.02086,0.85938 -2.3125,0.85938 -0.87502,0 -1.50002,-0.45313 -1.875,-1.35938 -0.37502,-0.90624 -0.60419,-2.45312 -0.6875,-4.64062 -0.87502,1.10417 -1.68231,2.04167 -2.42188,2.8125 -0.7396,0.77083 -1.47918,1.39063 -2.21875,1.85937 -0.7396,0.46875 -1.4948,0.8073 -2.26562,1.01563 -0.77085,0.20833 -1.60418,0.3125 -2.5,0.3125 -1.14584,0 -2.31772,-0.33854 -3.51563,-1.01563 -1.19792,-0.67708 -2.29167,-1.65103 -3.28125,-2.92187 -0.98958,-1.27083 -1.79687,-2.82291 -2.42187,-4.65625 -0.625,-1.83332 -0.9375,-3.90624 -0.9375,-6.21875 0,-1.18748 0.15625,-2.41665 0.46875,-3.6875 0.3125,-1.27081 0.76041,-2.49998 1.34375,-3.6875 0.58333,-1.18748 1.29687,-2.31248 2.14062,-3.375 0.84375,-1.06247 1.79687,-1.99477 2.85938,-2.79688 1.06249,-0.80205 2.22916,-1.43226 3.5,-1.89062 1.27082,-0.4583 2.62498,-0.68747 4.0625,-0.6875 0.56248,3e-5 1.08332,0.0365 1.5625,0.10937 0.47915,0.0729 0.95831,0.21358 1.4375,0.42188 0.47915,0.20836 0.98435,0.50524 1.51562,0.89062 0.53123,0.38545 1.13019,0.89066 1.79688,1.51563 0.58331,-0.33331 1.16664,-0.73435 1.75,-1.20313 0.58331,-0.46872 1.18747,-1.04684 1.8125,-1.73437 l 0.875,0.9375 c -3e-5,3e-5 -0.0469,0.1719 -0.14063,0.51562 -0.0938,0.34378 -0.19794,0.81253 -0.3125,1.40625 -0.11461,0.59378 -0.21877,1.28128 -0.3125,2.0625 -0.0938,0.78128 -0.14065,1.6094 -0.14062,2.48438 l 0,14.65625 c -3e-5,1.25001 0.0468,2.27084 0.14062,3.0625 0.0937,0.79167 0.22394,1.28125 0.39063,1.46875 0.18747,0.27084 0.61976,0.35417 1.29687,0.25 0.67706,-0.10416 1.54685,-0.39583 2.60938,-0.875 -3e-5,-0.0208 0.0312,0.0937 0.0937,0.34375 0.0625,0.25 0.12497,0.47917 0.1875,0.6875 0.0625,0.20834 0.0937,0.33334 0.0937,0.375 z"
         style=""
         id="path3154" />
    </g>
    <path
       transform="matrix(0.5,0,0,0.5,900.6875,641.9375)"
       style="fill:#000000;fill-opacity:1;fill-rule:nonzero;stroke:#b6b6b6;stroke-width:0;stroke-linecap:square;stroke-linejoin:miter;stroke-miterlimit:2;stroke-dashoffset:0;stroke-opacity:1;display:inline"
       d="m 40,40 c 0,8.284271 -6.715729,15 -15,15 -8.284271,0 -15,-6.715729 -15,-15 0,-8.284271 6.715729,-15 15,-15 8.284271,0 15,6.715729 15,15 z"
       id="path3832-1-42-5-2" />
    <g
       style="font-size:64px;font-style:normal;font-variant:normal;font-weight:normal;font-stretch:normal;line-height:125%;letter-spacing:0px;word-spacing:0px;fill:#000000;fill-opacity:1;stroke:none;display:inline;font-family:Gentium;-inkscape-font-specification:Gentium"
       id="text3046-7-3-4-4">
      <path
         d="m 951.71875,653.5 c -1.14585,3e-5 -2.33335,0.53128 -3.5625,1.59375 -1.22918,1.06252 -2.62501,2.52086 -4.1875,4.375 l 0,13.28125 c 0.45832,0.50001 1.0052,0.96355 1.64062,1.39062 0.63541,0.42709 1.29166,0.80209 1.96875,1.125 0.67707,0.32293 1.35936,0.57813 2.04688,0.76563 0.68748,0.1875 1.31248,0.28125 1.875,0.28125 0.97915,0 1.91144,-0.21354 2.79687,-0.64063 0.8854,-0.42707 1.66665,-1.08853 2.34375,-1.98437 0.67706,-0.89583 1.21352,-2.04166 1.60938,-3.4375 0.39581,-1.39582 0.59372,-3.0729 0.59375,-5.03125 -3e-5,-1.99998 -0.20836,-3.73436 -0.625,-5.20313 -0.41669,-1.46872 -0.96357,-2.68747 -1.64063,-3.65625 -0.6771,-0.96872 -1.43752,-1.68747 -2.28125,-2.15625 -0.84377,-0.46872 -1.70314,-0.70309 -2.57812,-0.70312 z M 943.5,650.53125 c -10e-6,3e-5 0.005,0.19274 0.0156,0.57812 0.0104,0.38545 0.0312,0.86462 0.0625,1.4375 0.0312,0.57295 0.0625,1.18753 0.0937,1.84375 0.0312,0.65628 0.0677,1.26565 0.10938,1.82813 1.83332,-2.31247 3.59374,-4.02081 5.28125,-5.125 1.68748,-1.10414 3.3229,-1.65622 4.90625,-1.65625 1.14581,3e-5 2.29164,0.2917 3.4375,0.875 1.14581,0.58336 2.17185,1.47919 3.07812,2.6875 0.90623,1.20836 1.6406,2.74482 2.20313,4.60937 0.56247,1.86461 0.84372,4.07815 0.84375,6.64063 -3e-5,1.18751 -0.16149,2.41668 -0.48438,3.6875 -0.32294,1.27084 -0.77086,2.50001 -1.34375,3.6875 -0.57294,1.18751 -1.25523,2.31251 -2.04687,3.375 -0.79169,1.0625 -1.65107,1.99479 -2.57813,2.79687 -0.9271,0.80209 -1.90106,1.4323 -2.92187,1.89063 -1.02085,0.45833 -2.06252,0.6875 -3.125,0.6875 -0.91668,0 -1.99481,-0.35417 -3.23438,-1.0625 -1.23959,-0.70833 -2.51563,-1.63541 -3.82812,-2.78125 -0.77084,0.35417 -1.54168,0.85417 -2.3125,1.5 -0.77084,0.64583 -1.57292,1.42708 -2.40625,2.34375 l -0.875,-0.9375 c -10e-6,0 0.0469,-0.17187 0.14062,-0.51563 0.0937,-0.34374 0.19792,-0.81249 0.3125,-1.40625 0.11458,-0.59374 0.21875,-1.28124 0.3125,-2.0625 0.0937,-0.78124 0.14062,-1.60936 0.14063,-2.48437 l 0,-15.8125 c -10e-6,-0.79164 -0.0521,-1.43748 -0.15625,-1.9375 -0.10417,-0.49998 -0.31251,-0.89581 -0.625,-1.1875 -0.3125,-0.29164 -0.75521,-0.49477 -1.32813,-0.60938 -0.57292,-0.11455 -1.32812,-0.19268 -2.26562,-0.23437 l 0,-1.25 c 1.16666,-0.29164 2.41666,-0.63539 3.75,-1.03125 1.33333,-0.3958 2.58333,-0.88539 3.75,-1.46875 z"
         style=""
         id="path3158" />
    </g>
  </g>
</svg>
